<?xml version="1.0" encoding="utf-8"?>
<!-- Generator: Adobe Illustrator 23.1.1, SVG Export Plug-In . SVG Version: 6.00 Build 0)  -->
<svg version="1.1" id="Layer_1" xmlns="http://www.w3.org/2000/svg" xmlns:xlink="http://www.w3.org/1999/xlink" x="0px" y="0px"
	 viewBox="0 0 20 20" style="enable-background:new 0 0 20 20;" xml:space="preserve">
<path d="M6.3,13.9h1.3l0.7-1.9h3.3l0.7,1.9h1.3l-3-7.8H9.3L6.3,13.9L6.3,13.9z M10,7.8l1.2,3H8.8L10,7.8L10,7.8z"/>
<g>
	<path class="st0" d="M18.9,5.7c0.4-0.5,0.6-1.2,0.6-1.9c0-1.9-1.5-3.4-3.3-3.4c-0.7,0-1.4,0.2-1.9,0.6c-1.3-0.6-2.7-1-4.2-1
		c-5.5,0-9.9,4.4-9.9,9.9c0,5.5,4.4,9.9,9.9,9.9c5.5,0,9.9-4.4,9.9-9.9C19.9,8.5,19.5,7,18.9,5.7z M15.1,2h1.1
		c0.5,0,1.1,0.3,1.1,0.9c0,0.4-0.3,0.6-0.3,0.6c0,0,0.5,0.2,0.5,0.8c0,0.6-0.5,1-1.1,1h-1.2V2z M10,18.2c-4.5,0-8.2-3.7-8.2-8.2
		c0-4.5,3.7-8.2,8.2-8.2c1.1,0,2.2,0.2,3.1,0.6c-0.2,0.4-0.3,0.9-0.3,1.4c0,1.9,1.5,3.4,3.3,3.4c0.5,0,1-0.1,1.4-0.3
		c0.4,1,0.6,2,0.6,3.1C18.2,14.5,14.5,18.2,10,18.2z"/>
	<path class="st0" d="M16.7,3c0-0.3-0.2-0.4-0.5-0.4h-0.5v0.8h0.5C16.5,3.4,16.7,3.3,16.7,3z"/>
	<path class="st0" d="M16.8,4.4c0-0.3-0.2-0.4-0.5-0.4h-0.6v0.9h0.6C16.6,4.8,16.8,4.7,16.8,4.4z"/>
</g>
</svg>
