<?xml version="1.0" encoding="utf-8"?>
<svg version="1.1" id="Layer_1" xmlns="http://www.w3.org/2000/svg" xmlns:xlink="http://www.w3.org/1999/xlink" x="0px" y="0px"
	 viewBox="0 0 20 20" style="enable-background:new 0 0 20 20;" xml:space="preserve">
<style type="text/css">
	.st0{fill:#6171B5;}
	.st1{fill:#1B214C;}
</style>
<g>
	<path class="st0" d="M2.9,16.2c0-1.2,0.2-2.3,0.4-3.5c0-0.2,0.1-0.5,0.3-0.7c0.2-0.3,0.5-0.6,0.9-0.6c0.3,0,0.3,0.5,0.3,0.7
		c0.6,1.7,1.4,3.2,2.7,4.5c0.4,0.4,0.8,0.7,1.2,0.9C8.9,17.7,9.2,17.7,9,18c-0.1,0.3-0.1,0.8-0.6,0.8c-1.8,0-3.5-0.3-5.2-1
		c-0.3-0.1-0.4-0.3-0.3-0.6C2.9,17,2.9,16.6,2.9,16.2z"/>
	<path class="st0" d="M17,3.8c0,1.3-0.2,2.6-0.5,4c-0.1,0.6-0.4,0.8-0.9,0.9c-0.4,0.1-0.6,0.1-0.6-0.4c-0.2-2-1-3.8-2.4-5.3
		c-0.1-0.1-0.2-0.2-0.3-0.3c-0.2-0.2-0.7-0.3-0.5-0.7c0.2-0.4,0.5-0.7,1-0.7c0.4,0,0.7,0,1.1,0.1c0.9,0.2,1.7,0.5,2.5,0.7
		C16.8,2.2,17.1,2.5,17,3C17,3.2,17,3.5,17,3.8z"/>
	<path class="st1" d="M16.1,11.4c-1-1.5-2.3-2.7-3.6-4c-1-0.9-1.8-2-2.3-3.3C9.7,2.7,9.6,1.3,11,0C8.9,0,7.1,0.6,5.6,1.8
		c-2.4,2-3,4.9-1.3,7.5c0.5,0.8,1.1,1.6,1.8,2.4c1.3,1.4,2.5,2.7,3.5,4.3c0.8,1.2,1.3,2.5,0.5,4c1.7,0,3.2-0.5,4.6-1.4
		C16.8,17.1,18.2,14.4,16.1,11.4z M13.4,18.4c-0.2,0-0.4-0.1-0.4-0.3c0-0.2,0.2-0.3,0.4-0.3c0.2,0,0.3,0.1,0.3,0.3
		C13.7,18.3,13.6,18.4,13.4,18.4z M14.4,17.8c-0.2,0-0.3-0.2-0.3-0.4c0-0.2,0.1-0.3,0.3-0.3c0.2,0,0.3,0.1,0.3,0.3
		C14.7,17.6,14.6,17.8,14.4,17.8z M15.1,16.9c-0.2,0-0.3-0.2-0.3-0.4c0-0.2,0.2-0.3,0.4-0.3c0.2,0,0.3,0.2,0.3,0.3
		C15.4,16.8,15.3,16.9,15.1,16.9z"/>
</g>
</svg>
