<svg xmlns="http://www.w3.org/2000/svg" width="20" height="20" viewBox="0 0 20 20">
	<path d="m5.64061786.98596548 8.60095684-.00146814c1.6268055-.00027769 2.2175432.16938914 2.8138163.48807555.5962732.3186864 1.0652814.78641505 1.3862243 1.38244235.3209428.59602729.4931785 1.18725228.5010418 2.81773904l.0415737 8.62042012c.0078633 1.6304868-.1586695 2.2217696-.4738629 2.8179055-.3151934.5961358-.7796894 1.0640238-1.3728878 1.3829133-.5931983.3188894-1.1822985.4887576-2.809104.4890353l-8.60095683.0014682c-1.62680543.0002776-2.21754313-.1693892-2.81381629-.4880756-.59627317-.3186864-1.06528137-.786415-1.38622424-1.3824423-.32094288-.5960273-.49317854-1.1872523-.50104188-2.8177391l-.04157365-8.6204201c-.00786334-1.63048677.15866944-2.22176958.47386289-2.81790546.31519344-.59613588.77968944-1.06402387 1.37288777-1.38291331.59319834-.31888944 1.18229856-.48875766 2.80910399-.48903535zm-.65612086 2.99853152c-.55228475 0-1 .44771525-1 1v10c0 .5522847.44771525 1 1 1h3c.55228475 0 1-.4477153 1-1v-10c0-.55228475-.44771525-1-1-1zm7 7c-.5522847 0-1 .4477153-1 1v3c0 .5522847.4477153 1 1 1h3c.5522847 0 1-.4477153 1-1v-3c0-.5522847-.4477153-1-1-1zm0-7c-.5522847 0-1 .44771525-1 1v3c0 .55228475.4477153 1 1 1h3c.5522847 0 1-.44771525 1-1v-3c0-.55228475-.4477153-1-1-1z"></path>
</svg>
