<?xml version="1.0" encoding="utf-8"?>
<!-- Generator: Adobe Illustrator 23.1.1, SVG Export Plug-In . SVG Version: 6.00 Build 0)  -->
<svg version="1.1" id="Layer_1" xmlns="http://www.w3.org/2000/svg" xmlns:xlink="http://www.w3.org/1999/xlink" x="0px" y="0px"
	 viewBox="0 0 20 20" style="enable-background:new 0 0 20 20;" xml:space="preserve">
<g id="_x38_OAexp_1_">
	<g>
		<path d="M17.4,0c1.1,0.1,1.9,0.5,2.3,1.5c0.5,1,0.3,2-0.5,2.8c-1.6,1.7-7.5,7.6-8.9,8.9c-0.6,0.6-0.7,1.5-1.1,2.2
			c-0.4,0.9-0.8,1.9-1.1,2.9C8,19.1,6.8,19,6.8,19l-5.4,0.7c-0.4,0.1-0.9,0.5-1.3,0.1c-0.3-0.3,0.1-1.2,0.1-1.2l1-6.5
			c0,0,0.3-0.3,0.5-0.4c1.5-0.6,2.9-1.1,4.4-1.7C6.3,10,6.5,9.8,6.6,9.7c2.9-2.9,5.9-5.9,8.8-8.8C16,0.4,16.6,0,17.4,0z M1.3,19
			c0.5,0.1,0.8,0.1,1.1,0c1.3-0.3,2.6-0.4,3.9-0.6C7.3,18.4,7.8,18,8.1,17c0.7-2.2,1.4-4.4,3.4-5.8c0.3-0.2,0.3-0.5,0-0.8
			c-0.5-0.4-0.9-0.9-1.3-1.3C9.1,8.1,9.1,8.1,8,9.2c-0.5,0.5-0.9,1.1-1.6,1.4c-1.3,0.5-2.7,1.1-4.1,1.6c-0.5,0.2-0.6,0.4-0.7,0.8
			c-0.3,1.7-0.5,3.3-0.8,5c0,0.2-0.1,0.4,0.1,0.7c1-1,2-2,3-3.1c0.2-0.2,0.2-0.5,0.2-0.7c-0.1-0.7,0.4-1.3,1.1-1.3
			c0.6,0,1.2,0.6,1.2,1.2c0,0.6-0.6,1.1-1.2,1c-0.3,0-0.5,0-0.8,0.2C3.4,16.9,2.4,17.9,1.3,19z M17.4,0.8c-0.6,0-1,0.1-1.4,0.5
			c-2,2-4,4.1-6.1,6.1C9.6,7.6,9.7,7.8,9.9,8c0.7,0.7,1.4,1.4,2.1,2.1c0.3,0.3,0.4,0.2,0.7,0c0.6-0.6,1.2-1.2,1.9-1.9
			c1.4-1.4,2.8-2.8,4.2-4.2c0.5-0.5,0.7-1.6,0.4-2.2C18.8,1.1,18.2,0.7,17.4,0.8z"/>
	</g>
</g>
</svg>
