<svg xmlns="http://www.w3.org/2000/svg" viewBox="0 0 256 256">
	<circle cx="210.86" cy="44.87" r="12.79"/>
	<path d="M100.85,0A100.85,100.85,0,0,0,0,100.85V256H155.15A100.85,100.85,0,0,0,256,155.15V0Zm-59,149.49-8.29,8.28a4.83,4.83,0,1,1-6.83-6.83l8.28-8.28a4.83,4.83,0,1,1,6.84,6.83Zm34.86,53.16a9.31,9.31,0,0,1,0-13.13l10.69-10.69A9.28,9.28,0,0,1,100.57,192L89.88,202.65A9.31,9.31,0,0,1,76.75,202.65Zm35.92,18.92L105.22,229a5.75,5.75,0,0,1-8.13-8.13l7.45-7.45a5.75,5.75,0,0,1,8.13,8.13ZM123.24,211a4.84,4.84,0,0,1-6.83,0l-1.23-1.24a4.81,4.81,0,0,1,0-6.8l31.07-31.48a8.4,8.4,0,0,0,0-11.88l-.89-.89a8.4,8.4,0,0,0-11.88,0l-16.94,16.94a8.41,8.41,0,0,1-11.89,0l-1.06-1.06a8.41,8.41,0,0,1,0-11.89l15.08-15.08a8.4,8.4,0,0,0,0-11.88l-.89-.89a8.41,8.41,0,0,0-11.89,0L90.8,149.93a8.42,8.42,0,0,1-13-1.35,8.61,8.61,0,0,1,1.33-10.76l16.71-16.71a8.41,8.41,0,0,0,0-11.89l-.88-.88a8.4,8.4,0,0,0-11.89,0L51.8,139.56A4.83,4.83,0,0,1,45,132.73L95.13,82.58l78.26,78.27Zm52.54-52.54L97.52,80.19l3.28-3.28,78.27,78.26Zm48.34-95.19a22.15,22.15,0,0,1-11.47,6.1,28.49,28.49,0,0,0-8.17,2.82,65.85,65.85,0,0,0-10.35,7.18c-10.3,11.06-12.26,20-12.25,26,0,16,14.07,26.16,9.68,37.63-1.91,5-6.41,7.87-9.38,9.38L143,113.18h0L103.72,73.94c1.51-3,4.39-7.47,9.38-9.38,11.47-4.39,21.58,9.68,37.63,9.68,6,0,15-1.95,26-12.25a75.27,75.27,0,0,0,5.62-7.69,31.65,31.65,0,0,0,4.17-11,22.25,22.25,0,1,1,37.58,19.94Z"/>
</svg>
