<?xml version="1.0" encoding="utf-8"?>
<!-- Generator: Adobe Illustrator 23.1.1, SVG Export Plug-In . SVG Version: 6.00 Build 0)  -->
<svg version="1.1" id="Layer_1" xmlns="http://www.w3.org/2000/svg" xmlns:xlink="http://www.w3.org/1999/xlink" x="0px" y="0px"
	 viewBox="0 0 32 32" style="enable-background:new 0 0 32 32;" xml:space="preserve">
<style type="text/css">
	.st0{fill:url(#SVGID_1_);}
	.st1{fill:url(#SVGID_2_);}
	.st2{fill:url(#SVGID_3_);}
	.st3{fill:url(#SVGID_4_);}
	.st4{fill:url(#SVGID_5_);}
	.st5{opacity:0.1;}
	.st6{opacity:0.16;}
	.st7{opacity:0.6;}
	.st8{fill:#FFFFFF;}
	.st9{opacity:0.3;}
</style>
<g>
	
		<linearGradient id="SVGID_1_" gradientUnits="userSpaceOnUse" x1="23.1013" y1="4.5964" x2="17.8552" y2="19.01" gradientTransform="matrix(1 0 0 -1 0 33)">
		<stop  offset="0" style="stop-color:#4FACFE"/>
		<stop  offset="1" style="stop-color:#00F2FE"/>
	</linearGradient>
	<path class="st0" d="M29,13.1l-1-2.8l-5.2,1.9c0,0.1,0.1,0.3,0.1,0.4c0.1,0.2,0.1,0.5,0.1,0.7c0,0.1,0,0.3,0.1,0.4
		c0,0.1,0,0.2,0,0.3c0,0.2,0,0.3,0,0.5c0,0.5,0.1,1,0,1.6c0,0.2,0,0.4,0,0.6c0,0.1,0,0.3,0,0.4c-0.1,0.5-0.1,1-0.3,1.6l0.1,0
		c-0.1,0.5-0.2,1-0.5,1.4c0,0,0,0,0,0c-0.1,0.4-0.3,0.8-0.4,1.2c-0.2,0.4-0.3,0.7-0.5,1.1c-0.1,0.2-0.2,0.4-0.3,0.5c0,0,0,0,0,0
		c-0.1,0.2-0.2,0.3-0.3,0.5c-0.2,0.4-0.5,0.7-0.7,1c-0.1,0.2-0.3,0.4-0.4,0.5c-0.1,0.1-0.2,0.3-0.3,0.4c0,0,0,0,0,0
		c-0.1,0.1-0.2,0.3-0.3,0.4c-0.3,0.3-0.6,0.6-0.9,0.9c-0.1,0.1-0.3,0.3-0.4,0.4c-0.3,0.2-0.6,0.5-0.9,0.7c-0.1,0.1-0.2,0.2-0.3,0.2
		c-0.2,0.2-0.4,0.3-0.7,0.5c-0.1,0.1-0.2,0.1-0.2,0.2c-0.2,0.1-0.3,0.2-0.5,0.3c-0.2,0.1-0.3,0.2-0.5,0.3c-0.2,0.1-0.4,0.2-0.6,0.3
		c-0.2,0.1-0.3,0.2-0.5,0.2c-0.1,0-0.1,0.1-0.2,0.1c0,0-0.1,0-0.1,0.1c-0.1,0-0.2,0.1-0.3,0.1c-0.2,0.1-0.5,0.2-0.7,0.3
		c1.8,0.3,3.7,0.4,5.5,0c1.8-0.3,3.6-1,5.2-2c0,0,0,0,0,0c2.2-1.3,3.9-3.2,5.1-5.3c1.2-2.1,1.7-4.5,1.5-6.8
		C29.6,15,29.4,14.1,29,13.1z"/>
	
		<linearGradient id="SVGID_2_" gradientUnits="userSpaceOnUse" x1="20.0542" y1="13.455" x2="18.0112" y2="19.0684" gradientTransform="matrix(1 0 0 -1 0 33)">
		<stop  offset="0" style="stop-color:#00C6FB"/>
		<stop  offset="1" style="stop-color:#005BEA"/>
	</linearGradient>
	<path class="st1" d="M22.8,12.2l-6.4,2.3c-0.4,0.1-0.8,0.4-1.1,0.6c-0.3,0.3-0.6,0.6-0.8,1c-0.2,0.4-0.3,0.8-0.4,1.2
		c0,0.4,0,0.8,0.2,1.2c0.1,0.4,0.4,0.7,0.6,1c0.3,0.3,0.6,0.5,1,0.7c0.4,0.2,0.8,0.2,1.3,0.2c0.4,0,0.9-0.1,1.3-0.2l4.4-1.6
		C23.4,16.4,23.3,14.2,22.8,12.2z"/>
	
		<linearGradient id="SVGID_3_" gradientUnits="userSpaceOnUse" x1="15.5299" y1="4.0839" x2="8.8733" y2="22.373" gradientTransform="matrix(1 0 0 -1 0 33)">
		<stop  offset="0" style="stop-color:#89F7FE"/>
		<stop  offset="1" style="stop-color:#66A6FF"/>
	</linearGradient>
	<path class="st2" d="M22.5,19.9c-0.4,0.9-1,1.7-1.7,2.4c-0.7,0.7-1.6,1.2-2.6,1.6c-0.4,0.2-0.9,0.3-1.4,0.4
		c-0.5,0.1-0.9,0.1-1.4,0.1c-1.4,0-2.7-0.4-3.8-1.1c0,0,0,0,0,0c-0.2-0.1-0.4-0.2-0.7-0.3c0,0,0,0,0,0c-2-1-3.7-2.5-4.9-4.3
		c-1.2-1.8-1.8-3.9-1.9-6c0-0.1,0-0.1,0-0.2c-1.8,2.9-2.3,6.2-1.5,9.2s2.9,5.6,5.8,7.2c1.2,0.6,2.5,1.1,3.8,1.3
		c3.2-1.2,6-3.2,7.9-5.8C21.2,22.9,22,21.5,22.5,19.9z"/>
	
		<linearGradient id="SVGID_4_" gradientUnits="userSpaceOnUse" x1="19.9502" y1="23.3647" x2="17.9037" y2="28.9873" gradientTransform="matrix(1 0 0 -1 0 33)">
		<stop  offset="0" style="stop-color:#4FACFE"/>
		<stop  offset="1" style="stop-color:#00F2FE"/>
	</linearGradient>
	<path class="st3" d="M24.5,1.6l-5.9,2.1c0,0,0,0,0,0c0,0,0,0,0,0c0,0,0,0,0,0c0,0,0,0,0,0l0,0c0,0.1-0.1,0.2-0.1,0.3
		c-0.1,0.3-0.2,0.5-0.2,0.8c-0.2,0.6-0.5,1.3-0.8,1.9c-0.1,0.1-0.1,0.2-0.2,0.4c0,0,0,0,0,0.1c-0.1,0.2-0.2,0.3-0.3,0.5
		c-0.1,0.2-0.2,0.3-0.3,0.5c-0.1,0.1-0.2,0.3-0.3,0.4c-0.1,0.1-0.1,0.2-0.2,0.3C16.1,9,16.1,9,16,9.1c-0.1,0.1-0.2,0.2-0.2,0.3
		c0,0-0.1,0.1-0.1,0.1c-0.1,0.1-0.2,0.3-0.3,0.4c0,0,0,0,0,0.1c-0.1,0.1-0.2,0.3-0.4,0.4c-0.1,0.1-0.2,0.3-0.3,0.4
		c0,0.1-0.1,0.1-0.1,0.1c-0.1,0.1-0.2,0.2-0.3,0.3c0,0,0,0,0,0c-0.1,0.1-0.3,0.3-0.4,0.4c0,0,0,0,0,0c-0.1,0.1-0.2,0.2-0.3,0.3
		c0.1-0.1,0.3-0.1,0.4-0.2l6.4-2.3c0.4-0.2,0.8-0.4,1.2-0.6c1.3-0.8,2.3-1.9,2.9-3.3C24.9,4.3,24.9,2.9,24.5,1.6z"/>
	
		<linearGradient id="SVGID_5_" gradientUnits="userSpaceOnUse" x1="15.9981" y1="11.3616" x2="10.5565" y2="26.3123" gradientTransform="matrix(1 0 0 -1 0 33)">
		<stop  offset="0" style="stop-color:#00C6FB"/>
		<stop  offset="1" style="stop-color:#005BEA"/>
	</linearGradient>
	<path class="st4" d="M18.6,3.8l-6.8,2.5c-3,1.1-5.6,3.1-7.3,5.7c-0.1,0.1-0.2,0.3-0.3,0.4c0,0.1,0,0.1,0,0.2c0,0,0,0,0,0l0,0
		c0,0.1,0,0.3,0,0.4c0,0,0,0,0,0.1c0,0.1,0,0.3,0,0.4c0,0.2,0,0.4,0.1,0.6c0,0.1,0,0.2,0.1,0.3c0,0.1,0.1,0.3,0.1,0.4
		c0,0.1,0.1,0.2,0.1,0.3c0,0.1,0,0.1,0,0.2c0.1,0.3,0.2,0.6,0.3,0.9c0,0.1,0.1,0.1,0.1,0.2c0,0.1,0,0.1,0.1,0.2c0,0,0,0.1,0,0.1
		c0,0,0,0.1,0.1,0.1c0,0.1,0.1,0.2,0.2,0.4c0,0,0,0.1,0.1,0.1c0.1,0.2,0.1,0.3,0.2,0.5c0.1,0.1,0.1,0.2,0.2,0.3c0,0,0,0,0,0
		c0,0.1,0.1,0.1,0.1,0.2c0.2,0.3,0.3,0.5,0.5,0.8c0.1,0.1,0.1,0.2,0.2,0.2c0.3,0.4,0.6,0.8,1,1.2c0.1,0.1,0.2,0.2,0.3,0.3
		c0.2,0.2,0.5,0.4,0.7,0.6c0.1,0.1,0.2,0.2,0.3,0.2c0.3,0.2,0.6,0.5,0.9,0.7c0.2,0.1,0.3,0.2,0.5,0.3c0.2,0.1,0.3,0.2,0.5,0.3
		c0,0,0,0,0,0c0,0,0.1,0,0.1,0.1c0.2,0.1,0.3,0.2,0.5,0.2c-1.1-0.7-1.9-1.7-2.4-2.9l0,0C9,19.5,8.9,18.7,9,17.8
		C9,17,9.3,16.1,9.7,15.3c0.8-1.4,2.1-2.6,3.7-3.3c0.1-0.1,0.2-0.2,0.3-0.3c0,0,0,0,0,0c0.1-0.1,0.3-0.3,0.4-0.4c0,0,0,0,0,0
		c0.1-0.1,0.2-0.2,0.3-0.3c0,0,0.1-0.1,0.1-0.1c0.1-0.1,0.2-0.2,0.3-0.4c0.1-0.1,0.3-0.3,0.4-0.4c0,0,0,0,0-0.1
		c0.1-0.1,0.2-0.3,0.3-0.4c0,0,0.1-0.1,0.1-0.1c0.1-0.1,0.2-0.2,0.2-0.3c0.1-0.1,0.1-0.1,0.2-0.2c0.1-0.1,0.1-0.2,0.2-0.3
		c0.1-0.1,0.2-0.3,0.3-0.4c0.1-0.2,0.2-0.3,0.3-0.5c0.1-0.2,0.2-0.3,0.3-0.5c0,0,0,0,0-0.1c0.1-0.1,0.1-0.2,0.2-0.4
		c0.3-0.6,0.6-1.2,0.8-1.9c0.1-0.3,0.2-0.5,0.2-0.8C18.5,4,18.6,3.9,18.6,3.8L18.6,3.8C18.6,3.8,18.6,3.8,18.6,3.8
		C18.6,3.8,18.6,3.8,18.6,3.8C18.6,3.8,18.6,3.8,18.6,3.8C18.6,3.8,18.6,3.8,18.6,3.8z"/>
	<g class="st5">
		<g class="st5">
			<path d="M18.2,23.8c-0.4,0.2-0.9,0.3-1.4,0.4c-2,1.7-4.7,3.2-8.4,4.6c1.2,0.6,2.5,1.1,3.8,1.3c3.2-1.2,6-3.2,7.9-5.8
				c1-1.4,1.8-2.8,2.3-4.4c-0.4,0.9-1,1.7-1.7,2.4C20,23,19.1,23.5,18.2,23.8z"/>
		</g>
	</g>
	<g class="st6">
		<g class="st6">
			<path d="M22.8,12.2l-0.6,0.2c0.2,2.3-0.3,4.7-1.4,6.9l2-0.7C23.4,16.4,23.3,14.2,22.8,12.2z"/>
		</g>
	</g>
	<g class="st5">
		<g class="st5">
			<path d="M7.2,8.9c-1.1,0.9-2,1.9-2.8,3.1c-0.1,0.1-0.2,0.3-0.3,0.4c0,0.1,0,0.1,0,0.2c0,0,0,0,0,0l0,0c0,0.1,0,0.3,0,0.4
				c0,0,0,0,0,0.1c0,0.1,0,0.3,0,0.4c0,0.2,0,0.4,0.1,0.6c0,0.1,0,0.2,0.1,0.3c0,0.1,0.1,0.3,0.1,0.4c0,0.1,0.1,0.2,0.1,0.3
				c0,0.1,0,0.1,0,0.2c0.1,0.3,0.2,0.6,0.3,0.9c0,0.1,0.1,0.1,0.1,0.2c0,0.1,0,0.1,0.1,0.2c0,0,0,0.1,0,0.1c0,0,0,0.1,0.1,0.1
				c0,0.1,0.1,0.2,0.2,0.4c0,0,0,0.1,0.1,0.1c0.1,0.2,0.1,0.3,0.2,0.5c0.1,0.1,0.1,0.2,0.2,0.3c0,0,0,0,0,0c0,0.1,0.1,0.1,0.1,0.2
				c0.2,0.3,0.3,0.5,0.5,0.8c0.1,0.1,0.1,0.2,0.2,0.2c0.3,0.4,0.6,0.8,1,1.2c0.1,0.1,0.2,0.2,0.3,0.3c0.2,0.2,0.5,0.4,0.7,0.6
				c0.1,0.1,0.2,0.2,0.3,0.2c0.3,0.2,0.6,0.5,0.9,0.7c0.2,0.1,0.3,0.2,0.5,0.3c0.2,0.1,0.3,0.2,0.5,0.3c0,0,0,0,0,0
				c0,0,0.1,0,0.1,0.1c0.2,0.1,0.3,0.2,0.5,0.2c-1.1-0.7-1.9-1.7-2.4-2.9l0,0c-1.6-2.3-3-5.9-2.1-11.2C7.2,9,7.2,8.9,7.2,8.9z"/>
		</g>
	</g>
	<g class="st5">
		<g class="st5">
			<path d="M22.5,2.4l-3.9,1.4c0,0,0,0,0,0c0,0,0,0,0,0c0,0,0,0,0,0c0,0,0,0,0,0l0,0c0,0.1-0.1,0.2-0.1,0.3
				c-0.1,0.3-0.2,0.5-0.2,0.8c-0.2,0.6-0.5,1.3-0.8,1.9c-0.1,0.1-0.1,0.2-0.2,0.4c0,0,0,0,0,0.1c-0.1,0.2-0.2,0.3-0.3,0.5
				c-0.1,0.2-0.2,0.3-0.3,0.5c-0.1,0.1-0.2,0.3-0.3,0.4c-0.1,0.1-0.1,0.2-0.2,0.3C16.1,9,16.1,9,16,9.1c-0.1,0.1-0.2,0.2-0.2,0.3
				c0,0-0.1,0.1-0.1,0.1c-0.1,0.1-0.2,0.3-0.3,0.4c0,0,0,0,0,0.1c-0.1,0.1-0.2,0.3-0.4,0.4c-0.1,0.1-0.2,0.3-0.3,0.4
				c0,0.1-0.1,0.1-0.1,0.1c-0.1,0.1-0.2,0.2-0.3,0.3c0,0,0,0,0,0c-0.1,0.1-0.3,0.3-0.4,0.4c0,0,0,0,0,0c-0.1,0.1-0.2,0.2-0.3,0.3
				c0.1-0.1,0.3-0.1,0.4-0.2l1.7-0.6c2.9-2.4,5.2-5.3,6.8-8.5C22.4,2.6,22.4,2.5,22.5,2.4z"/>
		</g>
	</g>
	<g class="st7">
		<g class="st7">
			<path class="st8" d="M22.1,21.1c-0.8,1.9-2,3.6-3.5,5.1c-1.5,1.5-3.3,2.7-5.3,3.6c0.1,0,0.2-0.1,0.5-0.2c0.2-0.1,0.4-0.1,0.6-0.2
				c0.3-0.1,0.5-0.2,0.8-0.3c0.1-0.1,0.3-0.1,0.4-0.2c0.1-0.1,0.3-0.2,0.4-0.3c0.3-0.2,0.6-0.4,0.9-0.6c0.3-0.2,0.6-0.4,0.9-0.7
				c0.3-0.3,0.6-0.5,0.9-0.8c0.3-0.3,0.6-0.6,0.8-0.9c0.3-0.3,0.5-0.6,0.7-0.9c0.2-0.3,0.4-0.6,0.6-0.9c0.2-0.3,0.3-0.5,0.5-0.8
				c0.1-0.3,0.2-0.5,0.3-0.7c0.1-0.2,0.1-0.4,0.2-0.6C22,21.3,22,21.1,22.1,21.1z"/>
		</g>
	</g>
	<g class="st7">
		<g class="st7">
			<path class="st8" d="M18.6,3.8L18.6,3.8c0,0-0.1,0.2-0.2,0.4c-0.1,0.2-0.3,0.6-0.5,1c-0.1,0.2-0.2,0.4-0.3,0.6
				c-0.1,0.2-0.2,0.5-0.4,0.7c-0.3,0.5-0.6,1-0.9,1.5c-0.3,0.5-0.6,1-0.9,1.4C15.3,9.6,15.2,9.8,15,10c-0.2,0.2-0.3,0.4-0.4,0.6
				c-0.3,0.4-0.5,0.7-0.7,0.9c-0.1,0.2-0.2,0.3-0.2,0.3C16.1,9.5,17.8,6.8,18.6,3.8z"/>
		</g>
	</g>
	<g class="st7">
		<g class="st7">
			<path class="st8" d="M4.9,16.2c-0.4-1.2-0.7-2.4-0.7-3.6l0,0c0,0,0,0.2,0,0.6c0,0.5,0,1,0.1,1.5c0.1,0.7,0.3,1.4,0.5,2
				C4.9,17,5,17.4,5.2,17.7c0.2,0.4,0.4,0.7,0.6,1.1c0.2,0.3,0.5,0.7,0.7,1c0.1,0.2,0.3,0.3,0.4,0.5c0.1,0.1,0.3,0.3,0.4,0.4
				c0.3,0.3,0.6,0.5,0.9,0.7c0.3,0.2,0.5,0.4,0.8,0.6c0.2,0.2,0.5,0.3,0.8,0.4c0.2,0.1,0.4,0.2,0.6,0.3c0.3,0.1,0.5,0.2,0.5,0.2
				C8.1,21.4,6,19.1,4.9,16.2z"/>
		</g>
	</g>
	<g class="st9">
		<g class="st9">
			<path d="M24.5,1.6L11.8,6.2c-3,1.1-5.6,3.1-7.3,5.7c0.3-0.4,0.6-0.7,0.9-1.1c0.3-0.4,0.6-0.7,1-1c0.3-0.3,0.6-0.5,0.9-0.8
				C7.2,9,7.3,9,7.3,9c0.4-0.3,0.8-0.6,1.1-0.8c0.4-0.3,0.8-0.5,1.2-0.7C10.1,7.2,10.6,7,11,6.8c0.4-0.2,0.9-0.3,1.3-0.5l1.4-0.5
				l2.7-1l2.7-1c1.1-0.4,2.1-0.8,3.2-1.2c0.7-0.2,1.3-0.5,2-0.8l0.1,0.2l0.1,0.5l0.1,0.5l0,0.5l0,0.5l-0.1,0.5l-0.1,0.5l-0.2,0.5
				L24,6.1l-0.2,0.5L23.4,7l-0.3,0.4l-0.4,0.4l-0.4,0.4l-0.4,0.4l-0.5,0.3c1.3-0.8,2.3-1.9,2.9-3.3C24.9,4.3,24.9,2.9,24.5,1.6z"/>
		</g>
	</g>
	<g class="st9">
		<g class="st9">
			<path d="M29,13.1l-1-2.8l-4.5,1.6c0.8-0.2,1.5-0.5,2.3-0.7c0.7-0.2,1.4-0.4,2.1-0.7l0.7,2.2c0.1,0.4,0.3,0.8,0.4,1.2
				c0.1,0.4,0.2,0.8,0.3,1.2c0.1,0.4,0.1,0.8,0.1,1.2c0,0.4,0,0.8,0,1.2c0,0.4-0.1,0.8-0.1,1.2c-0.1,0.4-0.1,0.8-0.3,1.2
				c-0.1,0.4-0.2,0.8-0.4,1.2c-0.1,0.2-0.2,0.4-0.2,0.6c-0.1,0.2-0.2,0.4-0.3,0.6c-0.1,0.2-0.2,0.4-0.3,0.6l-0.3,0.6
				c-0.1,0.2-0.2,0.4-0.3,0.5c-0.1,0.2-0.2,0.4-0.4,0.5l-0.4,0.5L26,25.4c-0.1,0.2-0.3,0.3-0.4,0.5c-0.2,0.2-0.3,0.3-0.5,0.5
				c-0.3,0.3-0.7,0.6-1,0.9c-0.3,0.3-0.7,0.5-1.1,0.8c2.2-1.3,3.9-3.2,5.1-5.3c1.2-2.1,1.7-4.5,1.5-6.8C29.6,15,29.4,14.1,29,13.1z"
				/>
		</g>
	</g>
</g>
<text transform="matrix(1 0 0 1 300 167.5)" style="font-family:'MyriadPro-Regular'; font-size:12px;">32</text>
</svg>
