<svg width="256" height="256" viewBox="0 0 256 256" xmlns="http://www.w3.org/2000/svg">
	<path
		d="M201 94.5906L213.5 94.5906L201 94.5906ZM55 94.5906L67.5 94.5906L55 94.5906ZM75.0383 210.458C68.9013 207.297 61.3632 209.709 58.2016 215.846C55.04 221.983 57.4521 229.521 63.5891 232.683L75.0383 210.458ZM192.411 232.683C198.548 229.521 200.96 221.983 197.798 215.846C194.637 209.709 187.099 207.297 180.962 210.458L192.411 232.683ZM128 33.5C161.318 33.5 188.5 60.756 188.5 94.5906L213.5 94.5906C213.5 47.1392 175.315 8.5 128 8.5L128 33.5ZM188.5 94.5906C188.5 128.425 161.318 155.681 128 155.681L128 180.681C175.315 180.681 213.5 142.042 213.5 94.5906L188.5 94.5906ZM128 155.681C94.6815 155.681 67.5 128.425 67.5 94.5906L42.5 94.5906C42.5 142.042 80.6849 180.681 128 180.681L128 155.681ZM67.5 94.5906C67.5 60.756 94.6815 33.5 128 33.5L128 8.5C80.6849 8.5 42.5 47.1392 42.5 94.5906L67.5 94.5906ZM63.5891 232.683C104.527 253.772 151.473 253.772 192.411 232.683L180.962 210.458C147.208 227.847 108.792 227.847 75.0383 210.458L63.5891 232.683Z"/>
</svg>
