<svg xmlns="http://www.w3.org/2000/svg" width="20" height="20" viewBox="-1.1 -0.2 20 20">
	<g transform="scale(0.46)">
		<path d="M37.8,12.5L23.2,4c-0.7-0.4-1.7-0.4-2.4,0l-0.4,0.2c0,0.1,0.1,0.2,0.1,0.3v5c0,0.3-0.2,0.6-0.6,0.6h-5
	c-0.3,0-0.6-0.2-0.6-0.6V7.7l-1.1,0.6v5.5c0,0.3-0.3,0.6-0.6,0.6H7c-0.3,0-0.6-0.3-0.6-0.6v-1.6l-0.3,0.2c-0.7,0.4-1.2,1.3-1.2,2.1
	l0,2.5h3.1c0.3,0,0.5,0.2,0.5,0.5v4.8c0,0.3-0.2,0.5-0.5,0.5H4.9l0,8.6c0,0.8,0.5,1.7,1.2,2.1L20.7,42c0.7,0.4,1.7,0.4,2.4,0
	l14.7-8.4c0.7-0.4,1.2-1.3,1.2-2.1l0-17C39,13.8,38.5,12.9,37.8,12.5z M30.5,27.8l-8.4,5L13.5,28l-0.2-9.8l8.4-5l8,4.5l-1,1.7
	l-7-3.9l-6.4,3.8l0.1,7.5l6.5,3.6l6.4-3.8v-1.4l-5.8-0.1l0-2l7.7,0.2V27.8z"/>
		<path d="M5,10.9c0,0.1-0.1,0.2-0.2,0.2H3.1C3,11.1,3,11,3,10.9V9.3C3,9.2,3,9.1,3.1,9.1h1.6C4.9,9.1,5,9.2,5,9.3L5,10.9
	L5,10.9z"/>
		<path d="M3.3,15.7C3.3,15.9,3.2,16,3,16H0.3C0.1,16,0,15.9,0,15.7V13c0-0.2,0.1-0.3,0.3-0.3H3c0.2,0,0.3,0.1,0.3,0.3
	L3.3,15.7L3.3,15.7z"/>
		<rect x="7.6" y="8.8" width="4.7" height="4.7"/>
		<rect x="15.3" y="4.9" width="4.3" height="4.3"/>
		<path d="M8,6.9C8,7,7.9,7.2,7.7,7.2H5.1C4.9,7.2,4.8,7,4.8,6.9V4.2c0-0.2,0.1-0.3,0.3-0.3h2.6C7.9,3.9,8,4.1,8,4.2V6.9z
	"/>
		<path d="M13.4,5.7c0,0.2-0.1,0.3-0.3,0.3h-2.6c-0.2,0-0.3-0.1-0.3-0.3V3.1c0-0.2,0.1-0.3,0.3-0.3h2.6
	c0.2,0,0.3,0.1,0.3,0.3V5.7z"/>
		<path d="M17.5,3c0,0.1-0.1,0.2-0.2,0.2H15c-0.1,0-0.2-0.1-0.2-0.2V0.7c0-0.1,0.1-0.2,0.2-0.2h2.2c0.1,0,0.2,0.1,0.2,0.2
	V3z"/>
		<rect x="3.4" y="18" width="4.1" height="4.1"/>
	</g>
</svg>
