<svg xmlns="http://www.w3.org/2000/svg" width="24" height="24" viewBox="0 -.5 24 24">
	<path d="M23.7064516,7.85406928 L23.7098367,7.86427999 C24.4443983,10.587136 23.7132217,13.5720668 22.315185,16.0328479 C20.6463421,18.959918 18.13123,21.390067 14.8510905,22.2886095 C10.646825,23.4526304 6.98755689,21.9959024 3.90713693,19.1403073 C-0.0974090147,15.4270124 -1.66469961,9.8009113 2.30261049,5.35244536 C3.90914069,3.64464276 5.84234724,2.28087947 7.98615457,1.34303996 C9.41283277,0.679981872 10.9364729,0.252457038 12.498462,0.0769119342 C14.2316214,-0.106880843 15.7955269,0.00203339524 17.383128,0.808679475 C18.7120273,1.47963923 19.931179,2.35079219 20.9983901,3.39198907 C22.2796118,4.61078764 23.2144136,6.15106315 23.7064516,7.85406928 Z M11.0472515,12.1260401 C11.0570052,12.1260401 11.0661373,12.1305193 11.0716838,12.138024 L13.6080828,15.5699051 C13.857632,15.9075583 14.2685082,16.1090909 14.7073521,16.1090909 L16.2805879,16.1090909 C16.5265719,16.1090909 16.7659283,16.0345077 16.9627697,15.8965237 C17.4654989,15.5441151 17.5676184,14.8772284 17.1908598,14.4069906 L14.8477735,11.482551 C14.4740487,11.0160996 14.4946103,10.3699525 14.8973339,9.92511857 L16.9429544,7.66560056 C17.0975454,7.49484494 17.1823837,7.27834044 17.1823837,7.05458482 C17.1823837,6.53240295 16.7298226,6.10909091 16.1715601,6.10909091 L14.6608349,6.10909091 C14.2392758,6.10909091 13.8424313,6.2951465 13.590161,6.61106296 L11.0565721,9.78385937 C11.0507062,9.79120529 11.0414784,9.79553159 11.031676,9.79553159 C11.023074,9.79553159 11.0161006,9.78900893 11.0161006,9.78096282 L11.0161006,7.35909091 C11.0161006,6.66873497 10.4177875,6.10909091 9.67973079,6.10909091 L8.75455167,6.10909091 C8.01649498,6.10909091 7.9453655,6.66873497 7.9453655,7.35909091 L7.9453655,14.8590909 C7.9453655,15.5494468 8.01649498,16.1090909 8.75455167,16.1090909 L9.6953062,16.1090909 C10.4333629,16.1090909 11.031676,15.5494468 11.031676,14.8590909 L11.031676,12.1406088 C11.031676,12.1325627 11.0386494,12.1260401 11.0472515,12.1260401 Z"></path>
</svg>
