<svg width="21px" height="21px" viewBox="0 0 21 21" version="1.1" xmlns="http://www.w3.org/2000/svg"
     xmlns:xlink="http://www.w3.org/1999/xlink">
    <g stroke="none" stroke-width="1" fill="none" fill-rule="evenodd">
        <g>
            <g transform="translate(0.000000, -0.000000)">
                <rect x="0" y="0" width="21" height="21"></rect>
                <path d="M8.2959,9.9254 C8.3095,9.93815 8.3248,9.94665 8.33755,9.95855 L5.8819,12.4142 C5.41355,11.99855 5.0149,11.4979 4.697,10.8995 C4.23205,10.02485 4,9.02015 4,7.8854 C4,6.75065 4.23205,5.73575 4.697,4.83985 C4.9061,4.4378 5.15345,4.0808 5.42885,3.75865 L7.94315,6.27295 C7.6975,6.70475 7.5683,7.23855 7.5683,7.8854 C7.5683,8.78725 7.81055,9.46725 8.2959,9.9254 Z M16.0785,2.21845 L16.0785,14.40745 L11.68485,10.0138 C11.73755,9.9696 11.7928,9.9339 11.8438,9.8846 C12.34275,9.39925 12.59265,8.7116 12.59265,7.82335 C12.59265,7.14335 12.4439,6.5849 12.1515,6.14545 L16.0785,2.21845 Z"
                      fill="#444444"></path>
                <path d="M12.59265,11.69935 C11.7996,13.01175 10.66485,13.66795 9.1884,13.66795 C8.2313,13.66795 7.36005,13.4257 6.5738,12.94035 C6.3256,12.78735 6.09865,12.60715 5.88275,12.41505 L8.3384,9.9594 C8.8161,10.39205 9.39155,10.61305 10.06985,10.61305 C10.6844,10.61305 11.2199,10.4065 11.68485,10.01465 L16.0785,14.4083 L16.0785,19 L12.59265,19 L12.59265,11.69935 Z M16.0785,2.10285 L16.0785,2.2193 L12.1515,6.1463 C12.0614,6.01115 11.9611,5.88535 11.8438,5.77315 C11.34485,5.2946 10.75325,5.05575 10.06985,5.05575 C9.38645,5.05575 8.79825,5.298 8.3061,5.78335 C8.1616,5.92615 8.04515,6.0936 7.94315,6.27295 L5.42885,3.75865 C5.76545,3.3634 6.1471,3.0234 6.584,2.74885 C7.37705,2.2499 8.2449,2 9.1884,2 C10.71925,2 11.854,2.5882 12.59265,3.76375 L12.59265,2.10285 L16.0785,2.10285 Z"
                      fill="#000000"></path>
            </g>
        </g>
    </g>
</svg>
