<svg width="20" height="20" viewBox="-1 -1 20 20" xmlns="http://www.w3.org/2000/svg">
	<path transform="scale(1.1)"
		  d="M15.8 8c0-2.2-.8-4-2.3-5.5-1.5-1.5-3.4-2.3-5.5-2.3s-4 .8-5.5 2.3c-1.5 1.5-2.3 3.3-2.3 5.5s.8 4 2.3 5.5c1.5 1.5 3.3 2.3 5.5 2.3.9 0 1.8-.1 2.6-.4l-2.2-2.3c-.1-.1-.3-.2-.4-.2-1.4 0-2.5-.5-3.4-1.4-1-.9-1.4-2.1-1.4-3.5s.5-2.6 1.4-3.5c.9-.9 2-1.4 3.4-1.4s2.5.5 3.4 1.4c.9.9 1.4 2.1 1.4 3.5 0 .7-.1 1.4-.4 2-.2.5-.8.6-1.2.2-1.1-1.1-2.8-1.2-4-.2l2.5 2.6 2.1 2.2c.9.9 2.4 1 3.4.1l.3-.3-1.3-1.3c-.2-.2-.2-.4 0-.6 1-1.3 1.6-2.9 1.6-4.7z"></path>
</svg>
