<svg xmlns="http://www.w3.org/2000/svg" viewBox="0 0 20 20">
	<path d="M18.9,10c0,1.4,0,2.7,0,4.1c0,0.7-0.3,1.2-0.9,1.6c-2.4,1.4-4.7,2.7-7.1,4.1c-0.6,0.4-1.3,0.4-1.9,0
		C6.7,18.4,4.4,17,2,15.7c-0.6-0.4-0.9-0.9-0.9-1.6c0-2.7,0-5.4,0-8.1c0-0.7,0.3-1.2,0.9-1.6C4.4,3,6.7,1.6,9.1,0.3
		c0.6-0.4,1.3-0.4,1.9,0C13.3,1.6,15.6,3,18,4.3c0.6,0.4,0.9,0.9,0.9,1.6C18.9,7.3,18.9,8.7,18.9,10z M10.2,4
		C9.7,4,9.2,4.2,8.7,4.4C8.4,4.6,8,4.8,7.6,5C6.7,5.6,5.8,6.1,4.8,6.7C4.6,6.8,4.4,7.1,4.4,7.4c0,0.3,0.2,0.5,0.4,0.6
		C5.1,8.2,5.4,8.1,5.7,8c1.3-0.7,2.5-1.5,3.8-2.2c0.8-0.4,1.7-0.2,2.1,0.5C12,7,11.7,7.9,11,8.4c-0.5,0.3-1,0.6-1.4,0.8
		c-0.8,0.5-1.6,0.9-2.5,1.4c-0.3,0.2-0.4,0.5-0.4,0.8C6.8,11.7,7,12,7.3,12c0.2,0,0.4,0,0.6-0.1c1.3-0.7,2.5-1.5,3.8-2.2
		c0.7-0.4,1.6-0.2,2,0.4c0.5,0.7,0.3,1.7-0.5,2.2c-1.3,0.7-2.6,1.5-3.8,2.2c-0.4,0.2-0.5,0.7-0.3,1.1c0.2,0.4,0.7,0.5,1.1,0.3
		c1.3-0.8,2.6-1.5,4-2.3c1.2-0.7,1.7-2.1,1.3-3.4c-0.3-1.1-1-1.8-2.1-2.1c-0.1,0-0.2-0.1-0.1-0.2c0.1-0.2,0.1-0.4,0.1-0.6
		C13.4,5.5,12,4,10.2,4z M4.4,11.3c0,0.2,0,0.4,0.1,0.7c0.5,2,2.7,3,4.5,1.9c1.3-0.7,2.6-1.5,3.8-2.2c0.4-0.2,0.5-0.7,0.3-1.1
		c-0.2-0.4-0.7-0.5-1.1-0.3c-0.4,0.2-0.7,0.4-1.1,0.6c-0.9,0.5-1.8,1-2.7,1.6c-0.6,0.3-1.1,0.3-1.7-0.1c-0.9-0.6-0.8-1.9,0.2-2.5
		c1.3-0.7,2.6-1.5,3.8-2.2C11,7.5,11.2,7,10.9,6.7c-0.2-0.4-0.7-0.5-1.1-0.3C8.5,7.1,7.2,7.9,5.9,8.6C4.9,9.2,4.5,10.1,4.4,11.3z"
		/>
</svg>
