<?xml version="1.0" encoding="utf-8"?>
<!-- Generator: Adobe Illustrator 23.1.1, SVG Export Plug-In . SVG Version: 6.00 Build 0)  -->
<svg version="1.1" id="Layer_1" xmlns="http://www.w3.org/2000/svg" xmlns:xlink="http://www.w3.org/1999/xlink" x="0px" y="0px"
	 viewBox="0 0 18 18" style="enable-background:new 0 0 18 18;" xml:space="preserve">
<g>
	<path d="M9,0C4,0,0,4,0,9s4,9,9,9s9-4,9-9S14,0,9,0z M6.5,12.6c-0.1,0.1-0.1,0.1-0.2,0.1l-2,0.1c-0.2,0-0.3-0.1-0.4-0.3l-0.1-2
		c0-0.1,0-0.2,0.1-0.2l5.5-6.4c0.1-0.1,0.3-0.2,0.5,0L12,5.7c0.1,0.1,0.2,0.3,0,0.5L6.5,12.6z M14,12.8H9.5c-0.2,0-0.4-0.2-0.4-0.5
		c0-0.2,0.2-0.5,0.4-0.5H14c0.2,0,0.4,0.2,0.4,0.5C14.4,12.6,14.2,12.8,14,12.8z M14,11h-2.8c-0.2,0-0.4-0.2-0.4-0.5
		c0-0.2,0.2-0.5,0.4-0.5H14c0.2,0,0.4,0.2,0.4,0.5C14.4,10.8,14.2,11,14,11z M14.1,9.2h-1.2c-0.2,0-0.3-0.2-0.3-0.5s0.1-0.5,0.3-0.5
		h1.2c0.2,0,0.3,0.2,0.3,0.5S14.3,9.2,14.1,9.2z"/>
</g>
</svg>
