<?xml version="1.0" encoding="utf-8"?>
<!-- Generator: Adobe Illustrator 23.1.1, SVG Export Plug-In . SVG Version: 6.00 Build 0)  -->
<svg version="1.1" id="Layer_1" xmlns="http://www.w3.org/2000/svg" xmlns:xlink="http://www.w3.org/1999/xlink" x="0px" y="0px"
	 viewBox="0 0 54 54" style="enable-background:new 0 0 54 54;" xml:space="preserve">
<path d="M26.9,0.3C12.2,0.3,0.3,12.2,0.3,26.8s11.9,26.5,26.5,26.5c14.7,0,26.5-11.9,26.5-26.5S41.5,0.3,26.9,0.3z M24.9,28
	c0,1.1-0.1,2.2-0.4,3.2c-0.3,1-0.7,1.8-1.3,2.6c-0.6,0.7-1.3,1.3-2.2,1.7c-0.9,0.4-2,0.6-3.2,0.6c-1.3,0-2.4-0.2-3.3-0.7
	c-0.9-0.4-1.7-1-2.2-1.8c-0.6-0.7-1-1.6-1.3-2.6c-0.3-1-0.4-2-0.4-3.1v-8.3h3.8V28c0,0.6,0.1,1.2,0.2,1.8s0.3,1.1,0.6,1.5
	c0.3,0.4,0.6,0.8,1.1,1.1s1,0.4,1.6,0.4s1.2-0.1,1.6-0.4s0.8-0.6,1.1-1.1c0.3-0.4,0.5-1,0.6-1.5c0.1-0.6,0.2-1.2,0.2-1.8v-8.3h3.8
	C24.9,19.7,24.9,28,24.9,28z M42.1,36H39v-1.6c-1.2,1.1-2.7,1.7-4.3,1.7c-1.1,0-2.1-0.2-3-0.6c-0.9-0.4-1.8-1-2.5-1.7
	c-0.7-0.7-1.3-1.6-1.7-2.6c-0.4-1-0.6-2.2-0.6-3.4c0-1.1,0.2-2.2,0.6-3.2c0.4-1,1-1.9,1.7-2.6c0.7-0.7,1.6-1.3,2.6-1.7
	c1-0.4,2.1-0.6,3.2-0.6c1.5,0,2.8,0.3,4,1c1.1,0.6,2,1.5,2.5,2.6l-2.8,2.1c-0.4-0.7-0.9-1.3-1.6-1.7c-0.7-0.4-1.4-0.6-2.3-0.6
	c-0.6,0-1.2,0.1-1.7,0.4s-1,0.6-1.3,1.1s-0.7,1-0.8,1.6c-0.2,0.6-0.3,1.2-0.3,1.9c0,0.7,0.1,1.4,0.3,1.9c0.2,0.6,0.5,1.1,0.9,1.5
	c0.4,0.4,0.8,0.8,1.4,1c0.5,0.2,1.1,0.4,1.8,0.4c1.5,0,2.8-0.7,4-2v-0.5h-3.2v-2.7h6.3C42.1,27.5,42.1,36,42.1,36z"/>
</svg>
