<svg width="650" height="171.89" viewBox="0 0 650 171.89" xmlns="http://www.w3.org/2000/svg"><g><path d="M565.84,171.89H529.26l-9.46-16.08,22.1-24.61,23.94,40.69Zm-54.94-17-15.25,17H453l40.79-46.15L510.9,154.9ZM333.76,48h29.15v66.83c0,16.55,8,29.63,24.2,29.77s23.4-12,23.4-29.77V48h27.87v66c0,32.41-13.19,57.87-52.67,57.87s-51.95-28-51.95-60V48ZM212.17,48h24.3c9.63,0,20.2-.12,29.67,1.63,36,6.64,53.76,27.47,53.27,61.21s-23.32,61-75.14,61h-32.1V48Zm29.15,26.34v71.2h8.31c22.85,0,40.24-12.46,40.24-35.92,0-22.94-17.4-35.28-38.74-35.28ZM116.42,48h76.66V73.89H145.57v22.4H186v25H145.57V146h47.51v25.91H116.42V48ZM0,48H25.31c12,0,24.19-.55,35.92,2.49,19.86,5.14,29.68,18.1,29.68,37.15,0,15.8-9,27.1-21.73,33.76l35.95,50.48H69.92l-40.77-60.1v60.1H0V48ZM63.13,90.49c.42-13.73-10.55-19.43-25.06-19.43H29.15v39.36H38.2c12,0,24.51-6.55,24.93-19.93Z" fill="white"/><polygon points="515.96 149.27 456.4 48.01 492.98 48.01 520.74 95.22 604.91 0 650 0 515.96 149.27 515.96 149.27" fill="white"/></g></svg>