<svg id="jetpack-performance" xmlns="http://www.w3.org/2000/svg" viewBox="0 0 270.6 142.8"><style>.c1{fill:#2271B1;}.c2{fill:#5198D9;}.c3{fill:#C6DEF6;}.c5{fill:#2FB41F;}.c6{fill:#64CA43;}.c7{fill:#CDC9CD;}.c9{fill:#FFF;}.s1{stroke:#2271B1;stroke-linecap:round;stroke-linejoin:round;stroke-miterlimit:10;stroke-width:0.876;}</style><path class="c3" d="M55.2 107.6l1.2-93.8V9.1c0-4.1 3.3-7.5 7.5-7.5H174c4.1 0 7.5 3.3 7.5 7.5v98.4H67.7"/><ellipse class="c9" transform="rotate(-35.101 120.26 62.439)" cx="120.3" cy="62.4" rx="30.8" ry="30.9"/><path class="c2" d="M56.4 21.2V8.9C56.4 4 59.7 0 63.8 0H174c4.1 0 7.5 4 7.5 8.9v12.3H56.4zm59.7 10.5c-8.1.8-15.8 4.9-21 11.1-5.3 6.2-8 14.4-7.6 22.5.4 8.2 3.9 15.9 9.8 21.6 5.9 5.7 13.7 8.9 21.9 8.9 8.1.1 16-3.4 21.5-9 .1-.1.1-.3 0-.5-.1-.1-.3-.1-.4 0-6 4.8-13.5 7.4-21 7.2-7.5-.3-14.8-3.2-20.1-8.5-5.4-5.2-8.5-12.3-8.8-19.8-.3-7.4 2.2-14.9 7.1-20.5 4.8-5.6 11.7-9.4 19.1-10.2 7.4-.9 14.9 1.2 20.9 5.7 6 4.5 10.1 11.1 11.4 18.5.7 3.7.6 7.4 0 11.1-.3 1.9-.7 3.8-1.2 5.5-.4 1 1.4 1.8 1.8.7.8-1.9 1.2-3.9 1.6-5.8.7-3.9 1-8 .3-12-3-16.6-18.4-28.3-35.3-26.5z"/><path class="c1" d="M185 21.2c-11 .9-22 .8-33.1.9l-33.2.1-33.1-.2c-11 0-22 0-33.1-.9v-.5c11-.9 22-.8 33.1-.9l33.1-.1 33.1.1c11 0 22 0 33.1.9v.5h.1zM98.3 72.7c-.4-1-1.5-1.5-2.4-1.1-1 .4-1.5 1.5-1.1 2.4.4 1 1.5 1.5 2.4 1.1 1-.4 1.5-1.5 1.1-2.4zm-3.6-8c-1-.1-1.8-1-1.8-2s1-1.8 2-1.8c1 .1 1.8 1 1.8 2-.1 1.1-1 1.8-2 1.8zm2.1-10.6c-.9-.5-1.2-1.6-.7-2.6.5-.9 1.6-1.2 2.6-.7.9.5 1.2 1.6.7 2.6-.6.9-1.7 1.2-2.6.7zm6.3-8.7c-.6-.8-.4-2 .4-2.6.8-.6 2-.4 2.6.4.6.8.4 2-.4 2.6-.8.7-2 .5-2.6-.4zm9.4-5.2c-.2-1 .5-2 1.5-2.2 1-.2 2 .5 2.2 1.5.2 1-.5 2-1.5 2.2-1 .2-2-.4-2.2-1.5zm10.7-.7c.2-1 1.3-1.6 2.3-1.4s1.6 1.3 1.4 2.3c-.2 1-1.3 1.6-2.3 1.4a2 2 0 0 1-1.4-2.3zm10.1 3.9c.7-.8 1.8-.9 2.7-.3.8.7.9 1.8.3 2.7s-1.8.9-2.7.3c-.9-.7-1-1.9-.3-2.7zm7.4 7.7c.9-.5 2.1-.1 2.5.9.5.9.1 2.1-.9 2.5s-2.1.1-2.5-.9 0-2 .9-2.5zm3.5 10.2c1 0 1.9.8 1.9 1.8s-.8 1.9-1.8 1.9-1.9-.8-1.9-1.8.8-1.9 1.8-1.9zM143.1 72c1 .4 1.4 1.5 1 2.5s-1.5 1.4-2.5 1c-1-.4-1.4-1.5-1-2.5.4-1 1.5-1.4 2.5-1z"/><path class="c5" d="M138.5 48.8c-.2-.1-.4-.1-.6-.1-3.8 1.8-7.1 4.4-10.3 6.9-1 .8-3.4 2.7-5.1 3.9-.8-.5-1.7-.7-2.7-.7-2.8.1-5 2.4-4.9 5.2.1 2.8 2.4 5 5.2 4.9s5-2.4 4.9-5.2c0-.6-.1-1.1-.3-1.6 1.4-1.1 3.5-2.9 4.8-4 3.2-2.6 6.4-5.3 9-8.6.2-.2.2-.5 0-.7zm-18.4 17.9c-1.5.1-2.8-1.2-2.9-2.7-.1-1.5 1.2-2.8 2.7-2.9 1.5-.1 2.8 1.2 2.9 2.7 0 1.6-1.2 2.9-2.7 2.9z"/><path class="c9" d="M239.9 113.2s-.5-5.9.1-10.2l1.1-8.3c.5-3.5 3.4-6.2 6.8-6.2H259c4.1 0 7.4 3.7 6.8 8l-1.1 8.3c-.2 1.7-1 3.2-2.1 4.3"/><path class="c9" d="M264.6 104.8c-9 1.2-16.4 5.8-17.2 10.1-.9 4.2-2.2 9.2-2.2 9.2h17.3l2.1-19.3z"/><path class="c6" d="M266 93.4c-.8-2.8-3.3-5.1-6.2-5.4-.8-.1-1.4-.1-2.1-.1h-10.1c-1.4 0-2.9.6-4 1.4-1.1.9-2 2.1-2.5 3.4-.3.7-.4 1.4-.5 2.1l-.3 2-.5 4c-.2 1.3-.4 2.8-.4 4.1-.1 2.7.1 5.5.4 8.1 0 .1.1.1.1-.1.1 0 .1 0 .1-.1 0-2.7 0-5.4.2-8 .1-1.3.3-2.7.5-4l.6-4 .3-2c0-.7.2-1.2.4-1.8.4-1.1 1.2-2.2 2.2-3 1-.8 2.2-1.2 3.4-1.2h12c2.6.2 4.7 2.2 5.5 4.6.2.7.3 1.2.3 1.9.1.3 0 .7 0 1l-.1 1.1-.5 4c-.2 1.1-.3 2.3-.4 3.4-.2 0-.5 0-.8.1l-1 .1c-.7.1-1.2.3-1.9.4-1.2.3-2.4.7-3.6 1.1-2.4.9-4.8 2-6.8 3.6-1.1.8-1.9 1.7-2.7 2.9-.3.6-.6 1.2-.8 1.9l-.4 1.8c-.6 2.5-1.1 5-1.8 7.4v.1c0 .1 0 .2.1.3-.3 1-.4 2.1-.6 3.2l-.6 4.5c-.3 3-.8 5.9-.8 9 0 .1.1.2.2.2s.2-.1.2-.2c.7-3 1.1-6 1.4-9 .2-1.5.4-3 .5-4.5.1-.9.2-1.9.2-2.9l17.2-.1c.2 0 .5-.2.5-.5.4-3.3.7-6.5 1-9.8l.8-8.4c0-.1.1-.2.1-.3.4-1.3.5-2.7.7-4l.6-4 .1-1.1c.1-.4.1-.7.1-1.1 0-.7-.1-1.5-.3-2.1zm-1.7 13.7l-1 7.6c-.5 3-.8 6-1.2 9l-16.2-.1c.6-2.2 1.1-4.5 1.7-6.8l.4-1.8c.1-.6.4-1.1.7-1.6.6-1.1 1.4-1.9 2.4-2.7 1.9-1.5 4.1-2.7 6.4-3.6 1.1-.5 2.3-.9 3.5-1.2.6-.2 1.2-.3 1.8-.5l1-.2c.2-.1.4-.1.5-.1v2z"/><path class="c9" d="M30.5 105c4.8-3.6 5-11.5.6-20.2S14.2 67.3 8.5 76s11.7 34 19 30.1M38 109.8c-3.1-5-1.1-13.3 5-18.7l1.7 5.9.9-6.8c2.3-.8 5.9-.8 7.9 1.3 8 8.5-6.4 21.9-13 19.1M63.8 114.1c-2.1-.2-3.1-2-3.1-2s1.3-1.5 3.4-1.3c1.1.1 1.8.7 2.3 1.2.4.5.3 1.2-.3 1.6-.6.4-1.3.7-2.3.5zm4.3-4.1c.7-.2 1-1 .7-1.5-.4-.7-1-1.4-2-1.7-1.9-.7-3.5.5-3.5.5s.5 2 2.5 2.7c.9.3 1.6.2 2.3 0zm-7.6 2s0-2.2-1.8-3.2c-.9-.5-1.8-.6-2.5-.5-.7.1-1.1.8-.9 1.3.2.7.7 1.4 1.6 2 2 1.2 3.6.4 3.6.4zm2.5-4.8s.3-2.1-1.2-3.4c-.7-.6-1.4-.8-2.1-.9-.9-.1-1.5.7-1.3 1.5.2.7.6 1.3 1.2 1.9 1.7 1.4 3.4.9 3.4.9z"/><path class="c6" d="M261.1 123c-.1 0 0 0 0 0zM249 97.5c-.4 0-.8.3-.8.8s.3.8.8.8c.4 0 .8-.3.8-.8s-.3-.8-.8-.8zm8.3 0c-.4 0-.8.3-.8.8s.3.8.8.8.8-.3.8-.8-.4-.8-.8-.8zM14.4 80.2c-.1-.1-.1-.2-.1-.3.1-.1.2-.1.3-.1 3.1 1.7 5.7 3.9 8 6.5s4.1 5.6 5.5 8.9 2.2 6.6 2.8 10.1c.5 3.3.6 6.6.3 10h4.7c.1-1.6.6-3.2 1.3-4.7.8-1.6 1.7-3.2 2.8-4.6 2.3-2.8 5-5.2 7.9-7.2.1-.1.2 0 .3 0 .1.1 0 .2 0 .3-2.5 2.5-5.2 4.8-7.2 7.6-1.1 1.3-2 2.8-2.8 4.3-.7 1.4-1.3 2.8-1.8 4.3h6.2c.2 0 .4.2.5.4l2.8 9.5v.1c.4 3.7-.7 7.7-3 10.6-1.1 1.4-2.6 2.7-4.3 3.5-1.6.9-3.5 1.2-5.4 1.1-1.8.1-3.7-.3-5.4-1.1-1.7-.9-3.2-2-4.3-3.5-2.3-3-3.4-6.9-3-10.6v-.1l2.8-9.5c.1-.2.3-.4.5-.4h7.1c-.3-3.3-.5-6.5-1-9.8-.6-3.4-1.5-6.6-2.8-9.8-1.3-3.2-3.1-6.1-5.2-8.7-2.1-2.6-4.7-4.9-7.5-6.8zm9.7 36.1l-2.8 9.1v-.1c-.2 1.7-.1 3.5.4 5.3.5 1.7 1.2 3.4 2.3 4.8 2.1 2.9 5.5 4.9 9.1 5v-.2c1.8 0 3.5-.5 5.2-1.3 1.5-.9 3-2 4-3.4 2.1-2.9 3.1-6.5 2.6-10.1v.1l-2.8-9.1h-18zm238 11.2c-.2-1-.3-2-.6-3h-.6c0 1 .1 2 .1 3 .1 1.5.3 3 .5 4.5.4 3.1.8 6 1.4 9 0 .1.1.2.2.2s.2-.1.2-.2c-.1-3-.5-6-.8-9 0-1.5-.2-2.9-.4-4.5zm-6 13.5l-12.9-.2v.2c0 .1-.1.2-.2.2s-.2-.1-.2-.2v-.2h-1.6l-14.9-.1h-4.6c.6-2.9 1-5.8 1.4-8.7.2-1.5.4-3 .5-4.5.2-1.1.2-2.3.2-3.5.3.2.7.3 1 .4 1 .2 1.7.1 2.6.1h5c4.2-.1 8.3-.1 12.4-.2 0-.1-.1-.1-.1-.2v-.1c0-.1.1-.2.1-.3-4.1-.1-8.3-.1-12.4-.2h-5c-.9 0-1.7 0-2.4-.1-.8-.2-1.4-.6-1.9-1.1-1.1-1-1.3-2.7-.8-4 .6-1.3 2-2.3 3.4-2.3l20-.1h.9l.2-.9h-1.1l-20-.1c-1 0-2.1.4-2.9 1l.2-.8c.2-.6.3-1 .5-1.4.9-1.9 2.6-3.4 4.3-4.5 3.5-2.3 7.5-3.6 11.6-4.6v-.3c-2.1.2-4.2.6-6.2 1.2-2.1.7-4.1 1.5-6 2.8-1.9 1.2-3.7 2.7-4.8 4.9-.2.6-.4 1.2-.5 1.7l-.3 1.6c0 .3-.1.6-.1.8-.1.2-.2.3-.2.5-.8 1.7-.3 3.8 1.1 5.2.3.3.6.5.9.7-.3 1.3-.6 2.5-.7 3.8l-.6 4.5c-.3 2.9-.7 5.7-.8 8.7l-24.8-.2-59.8-.1-59.8.1c-19.9.1-39.9.2-59.8.7-.1 0-.2.1-.2.2s.1.2.2.2c19.9.5 39.9.6 59.8.7l59.8.1 59.8-.1 29.9-.2 14.9-.1 14.9-.2c.2-.1.4-.2.4-.4s-.2-.4-.4-.4z"/><path class="c6" d="M21.8 105.8c-1.6-1-3.2-2.3-4.5-3.6-2.7-2.8-4.9-5.8-6.8-9.2-1.8-3.4-3.4-7-3.7-10.8-.2-1.9-.1-4 1-5.8 1.1-1.7 2.6-3.2 4.6-3.8 2-.6 4-.4 5.9.3 1.8.7 3.5 1.6 5.1 2.8 3.1 2.3 5.7 5.3 7.6 8.6 1.8 3.4 3.2 7.1 3.4 10.9.1 1.9 0 3.9-.7 5.7-.7 1.8-1.8 3.4-3.4 4.6h-.1c.2-.4.2-.4.3-.5 1.4-1.1 2.5-2.9 3-4.6.5-1.8.6-3.6.4-5.6-.4-3.7-1.7-7.3-3.5-10.5s-4.4-6-7.4-8.2c-1.5-1.1-3.2-2-4.9-2.6-1.7-.6-3.5-.8-5.3-.2-1.6.6-3.1 1.8-4 3.4-.9 1.5-1.1 3.4-.9 5.2.4 3.6 1.8 7.2 3.5 10.5s3.9 6.4 6.4 9.2c1.2 1.3 2.7 2.6 4.2 3.6.8.5 1.6.9 2.5 1.1.9.2 1.8.2 2.6-.2.1-.1.2 0 .3.1 0 .1 0 .2-.1.3-.9.5-1.9.6-2.9.4s-1.8-.6-2.6-1.1zm32.7-13.7c-.5-.7-1.1-1.2-1.8-1.7-.8-.4-1.5-.7-2.4-.9-1.6-.3-3.3-.1-4.9.4-.2 0-.4.2-.4.4l-.6 4.4-1.1-3.7c0-.1 0-.1-.1-.2-.2-.2-.5-.2-.7 0-2.6 2.4-4.6 5.5-5.6 8.8-.5 1.7-.8 3.5-.7 5.3.1 1.7.7 3.5 1.6 5 0 0 .1 0 .2-.2v-.1c-.9-1.4-1.2-3.2-1.2-4.9 0-1.6.3-3.4.9-5 1.1-3 2.8-5.7 5.1-7.8l1.4 5v.2h.1v.1c0 .2.2.4.4.4.3.1.6-.1.6-.4l.9-6.5c2.7-.7 6-.4 7.6 2 1 1.1 1.5 2.6 1.6 4 .1 1.4-.2 2.9-.8 4.3-1.1 2.9-3.3 5.3-5.6 7.1-1.2 1-2.6 1.7-4 2.2-1.4.5-3 .8-4.4.2-.1 0-.3 0-.3.1s0 .3.1.3c1.5.7 3.3.6 4.8.1s3-1.1 4.3-2.1c2.6-1.9 4.8-4.4 6-7.4.7-1.4 1-3.2.9-4.8-.3-1.6-.8-3.2-1.9-4.6zm-8.3 28c-4.2-.4-8.4-.3-12.6-.4l-6.3.1c-2.1.1-4.2.1-6.3.4-.1.2-.1.2 0 .2 2.1.3 4.2.3 6.3.4l6.3.1c4.2-.1 8.4-.1 12.6-.4.1 0 .2-.1.2-.2s-.1-.2-.2-.2zm-25.3.1zm0 0zM69 108.1c-.4-.8-.9-1.3-1.6-1.7-.7-.3-1.5-.5-2.3-.4-.2 0-.3 0-.5.1 0-.1 0-.1-.1-.2-.1-.2-.2-.2-.2-.1l-.3-.3c-.2.1-.3.3-.4.4 0-.1 0-.2-.1-.3-.1-.7-.5-1.3-1-1.8-.6-.5-1.1-.9-1.8-1.1-.1 0-.3-.1-.5-.1h-.6c-.5 0-1 .2-1.2.6-.3.4-.5.8-.5 1.2s.2.8.3 1.1c.3.7.7 1.2 1.2 1.6.5.4 1.1.7 1.8.8h.6c-.5.7-1 1.5-1.3 2.2-.2-.6-.7-1.2-1.2-1.5-.6-.5-1.2-.7-1.9-.8h-1.1c-.5 0-1 .3-1.2.7-.3.4-.3.9-.2 1.3.2.4.3.7.5 1 .4.6 1 1.1 1.5 1.4.6.3 1.2.5 1.9.5.2 0 .5 0 .8-.1-.2 1-.4 2.1-.5 3.2-.1-.2-.3-.4-.4-.6-.4-.6-1.1-1-1.7-1.1s-1.4-.2-2.1 0c-.3.1-.7.2-1 .4-.4.2-.8.6-.9 1.1-.1.5 0 1 .3 1.3.3.3.5.6.8.8.6.5 1.2.8 1.9.9.7.1 1.3 0 2-.2.3-.2.6-.3.9-.5l.1-.1v3.4c-2.2-.1-4.4-.2-6.6-.2h-.2c-.2.1-.3.4-.2.6l2 4c-.7 1.4-1.2 2.8-1.6 4.3-.4 1.6-.7 3.3-.5 4.9.2 1.7 1 3.4 2.3 4.5 1.2.9 2.7 1.4 4.2 1.5.1.1.2.1.4.1h.2c1.6 0 3.3-.4 4.6-1.5 1.3-1.1 2.1-2.9 2.3-4.5.2-1.7-.1-3.4-.5-4.9-.4-1.4-.9-2.9-1.6-4.3.6-1.3 1.3-2.6 1.9-4v-.2c0-.2-.2-.4-.4-.4-1.6.1-3.3.1-5 .2v-2.9c.1 0 .1.1.2.1.5.4 1.1.6 1.6.7 1.1.2 2.3-.2 3.2-1 .3-.2.6-.6.7-1.1 0-.2 0-.5-.1-.7-.1-.3-.3-.5-.4-.6-.6-.5-1.3-1-2.1-1.1-.8-.2-1.5 0-2.3.3l-.6.3c.1-.7.2-1.3.3-1.9l.5.5c.5.4 1.1.7 1.6.8 1.1.2 2.4-.1 3.3-.8.3-.2.7-.6.9-1 0-.2 0-.5-.1-.7-.1-.3-.3-.5-.4-.6-.5-.6-1.2-1.1-2-1.2-.9-.2-1.6-.2-2.4.1l-.6.3c.4-.8.8-1.6 1.5-2.5.1.2.3.4.4.6.3.5.8.9 1.3 1.1 1.1.6 2.3.5 3.4.1l-.1-.1c.4 0 .8-.3 1-.7.1-.2.1-.5.1-.7 0-.1-.1-.3-.2-.5zm-6.4 3.6c.6-.2 1.1-.3 1.7-.2.5.1 1.1.4 1.5.8l.3.3c0 .1.1.2.1.3 0 .3-.1.6-.3.8-1 .3-2 .4-2.7.1-.4-.2-.8-.4-1.1-.7-.3-.2-.5-.4-.6-.7.4-.4.7-.6 1.1-.7zm-.5-4.6c-.2 0-.5-.1-.8-.2-.5-.2-1-.4-1.3-.8-.4-.4-.7-.8-.9-1.2-.3-.6-.2-.8 0-1.1.1-.1.2-.2.4-.2H59.8c.1 0 .3.1.4.1.5.1 1 .4 1.3.7.4.3.8.8 1 1.2.1.2.2.5.3.8 0 .1 0 .1.1.2-.1.2-.3.3-.4.5h-.4zm-2.3 4.8c-.3 0-.6 0-.9-.1-.6-.1-1.1-.3-1.5-.6-.5-.3-.8-.7-1.1-1.1-.1-.2-.2-.5-.3-.7 0-.2 0-.3.1-.4.1-.1.1-.2.3-.2h.8c.5.1 1 .2 1.4.5.5.2.9.6 1.1 1.1l.3.6c0 .3-.1.6-.2.9zm-1 5.1l-.2.1c-.1.1-.3.1-.4.2-.2.1-.5.2-.8.2-.6.1-1.1 0-1.6-.1s-1-.3-1.3-.7c-.2-.2-.4-.4-.5-.6v-.4c.1-.1.1-.2.3-.3.3-.1.5-.2.8-.3.5-.2 1.1-.2 1.5-.1.5.1 1 .4 1.4.7.3.2.5.4.7.6l.3.3.1.1v.2l-.3.1zm6 17.6c-.2 1.4-.8 2.8-1.9 3.6-.9.8-2.3 1.1-3.6 1.2-.1 0-.2-.1-.3-.1-1.4 0-3-.4-4-1.2-1.1-.9-1.7-2.2-1.9-3.6-.2-1.4 0-3 .4-4.4.4-1.5.9-3 1.5-4.3.1-.1.1-.3 0-.4l-1.9-3.6c2.2-.1 4.4-.1 6.6-.2h.1c1.7.1 3.3.1 5 .2-.6 1.2-1.2 2.4-1.9 3.6-.1.2-.1.4 0 .5.7 1.3 1.1 2.9 1.5 4.3.4 1.5.5 3 .4 4.4zm-3.3-18.4c.6-.2 1.1-.3 1.7-.3.6.1 1.1.3 1.6.7.1.1.2.1.3.2.1.1.2.2.2.3.1.2 0 .5-.2.8-.9.4-1.9.5-2.9.3-.5-.1-.9-.3-1.2-.6-.2-.2-.4-.4-.6-.5v-.1c.4-.3.8-.5 1.1-.8zm6.6-6.3c-1.1 0-2-.2-2.8-.7-.4-.3-.7-.6-1-1-.2-.2-.3-.4-.4-.7.4-.2.9-.3 1.3-.4.6-.1 1.2 0 1.7.2.5.3 1 .7 1.3 1.1.1.1.2.2.2.3.1.1.1.3.1.4 0 .4-.1.6-.4.8z"/><path class="c7 s1" d="M209.4 110.8s5.7 10.9 4.9 21.3l-.9 2.7-18.1-25"/><path class="c7 s1" d="M187.6 108.8s1.3 25.9 2.7 30.3l5.4-.1c.3-9.1 3.4-20.7 3.7-32.4M198.7 61.4c3-.4 11.2 9.9 12.7 13.8 1.5 4-8.3 6.3-8.3 6.3"/><path class="c1 s1" d="M185.4 56.2c1.3.3 2.8-.1 2.8-.1.1 0 .1.1.1.1l-2.3 2.4-.6-2.6"/><path class="c7" d="M192.4 63.3h-6l-1-13.8h7z"/><path class="c7 s1" d="M187 40.5c-3.1-.1-5.9 1.3-6.3 4.1-.4 2.4-2.4 2.9-2.5 4.2 0 .9 1.6 1.1 1.8 2 .7 3 2.9 5.2 6.3 5.4.8 0 1.2 0 1.9-.2"/><path class="c10 s1" d="M182.1 51.3c-.4 1-1.4 1.4-1.4 1.4"/><path class="c1" d="M181.7 48.2c.2 0 .4-.2.4-.4V47c0-.2-.2-.4-.4-.4s-.4.2-.4.4v.8c-.1.2.1.4.4.4z"/><path class="c5" d="M185.7 59.5c8.4-2.7 11.9-.7 15.1 4.1 5.2 7.9 2.2 9.9 4.1 17.1 1.9 7.2 6.3 10.3 5.5 30.8h-24s-2.3-23.7-1.6-30.6M210.6 131.9s5.6 9.8 7.4 9.4c1.1-.2-.7-5-1.3-7.2-.4-1.6-.8-2.6-2.4-2.4l-3.7.2z"/><path class="c7 s1" d="M180.8 68.2s-1.6-1.2-2.9-3.4c-1.9-3.4-6.8-9.2-8-7.6-1.2 1.5.9 6.9 2.7 7.8 1.3 4.3 8.2 18.7 12.3 17.6s7.4-23 1.7-22.7c-5.7.3-6.1 12.9-6.1 12.9"/><path class="c1" d="M200.9 54.2c-.6-1-1.3-1.8-2.1-2.4-.7-.6-1.2-1.4-1.4-2.3-.2-1.3-.6-2.5-1.2-3.4-.8-1.2-2.3-2.2-3.8-2.6-1.4-2.4-2.6-2.8-4.3-3.3-2.8-.9-5.5.8-5.5.8-.4 3.2.9 6.7 3.8 6.9-.5 2.4.9 5.7 3.6 6.5-.3 1.8.1 4 1.3 5.9 2.2 3.6 6.2 5.1 8.8 3.5 2.7-1.8 3-6 .8-9.6z"/><path class="c5" d="M190 138c-1.3.4-5.3 1.2-6.5 1.6-1 .3-.8 1.8.3 1.8h10.8c1.2 0 2.2-1.1 2-2.3l-.2-1.2-6.4.1z"/></svg>