<?xml version="1.0" encoding="utf-8"?>
<!-- Generator: Adobe Illustrator 23.1.1, SVG Export Plug-In . SVG Version: 6.00 Build 0)  -->
<svg version="1.1" id="Layer_1" xmlns="http://www.w3.org/2000/svg" xmlns:xlink="http://www.w3.org/1999/xlink" x="0px" y="0px"
	 viewBox="0 0 771 547" style="enable-background:new 0 0 771 547;" xml:space="preserve">
<style type="text/css">
	.st0{fill-rule:evenodd;clip-rule:evenodd;fill:#CFE9FF;}
	.st1{fill-rule:evenodd;clip-rule:evenodd;fill:#E3E5E7;}
	.st2{fill-rule:evenodd;clip-rule:evenodd;fill:#FFFFFF;}
	.st3{fill-rule:evenodd;clip-rule:evenodd;fill:#464546;}
	.st4{fill:#FFFFFF;}
	.st5{opacity:0.5;}
	.st6{fill:#97C5D4;}
	.st7{fill:#046CFE;}
	.st8{fill:#C3DFE6;}
	.st9{fill:#FF3E48;}
	.st10{fill:#464546;}
	.st11{fill:#8CB6E6;}
	.st12{fill:#FCBF10;}
	.st13{fill:#DDDDE6;}
	.st14{fill:#22517D;}
	.st15{fill:#5F96C9;}
	.st16{fill:#ED5F55;}
	.st17{fill:#B8CDE6;}
	.st18{fill:#EDAE11;}
	.st19{fill:#CBE3F0;}
	.st20{filter:url(#Adobe_OpacityMaskFilter);}
	.st21{mask:url(#SVGID_1_);}
	.st22{fill:url(#SVGID_2_);}
	.st23{fill:url(#SVGID_3_);}
	.st24{fill:url(#SVGID_4_);}
	.st25{fill:url(#SVGID_5_);}
	.st26{fill:url(#SVGID_6_);}
	.st27{fill:#7AB1FD;}
	.st28{fill:#A9D0FF;}
	.st29{fill:none;stroke:#A62C23;stroke-width:0.8863;stroke-linecap:round;stroke-miterlimit:10;stroke-dasharray:0.1757,2.6354;}
	.st30{fill:#F2F2F2;}
	.st31{fill:#8CC5E6;}
</style>
<path class="st0" d="M82.03,272.5c-40.06,23.78-79.06-32.03-39.01-55.81L290.59,69.74c40.06-23.78,79.06,32.03,39.01,55.81
	c-40.06,23.78-1.05,79.58,39.01,55.81L567.82,63.37c40.06-23.78,84.54,28.78,39.01,55.81c-22.91,13.6-43,25.25-44.21,25.97
	c-40.06,23.78-1.05,79.58,39.01,55.81c47.54-28.23,62.42-37.12,109.97-65.34c40.06-23.78,79.06,32.03,39.01,55.81l-148.03,88.01
	c-36.72,24.42,1.63,77.92,41,54.55l50.34-29.78c40.06-23.78,79.06,32.03,39.01,55.8L465.23,518.79
	c-40.06,23.78-79.06-32.03-39.01-55.81c40.06-23.78,1.05-79.58-39.01-55.81L176.36,532.35c-40.06,23.78-79.06-32.03-39.01-55.81
	l67.04-39.8l-0.01,0.01l0.01-0.01c40.06-23.78,1.05-79.58-39.01-55.81l-13.8,8.19c-40.06,23.78-79.06-32.03-39.01-55.81l8.46-5.02
	C161.09,304.53,122.09,248.72,82.03,272.5L82.03,272.5z M59.11,446.28c16.72-9.93,21.55-30.47,10.77-45.88
	c-10.77-15.41-33.06-19.86-49.78-9.93c-16.72,9.93-21.55,30.47-10.78,45.88C20.1,451.77,42.39,456.21,59.11,446.28L59.11,446.28z
	 M423.21,69.98c16.72-9.93,21.55-30.47,10.78-45.88c-10.77-15.41-33.06-19.86-49.78-9.93c-16.72,9.93-21.55,30.47-10.78,45.88
	C384.2,75.46,406.49,79.9,423.21,69.98z"/>
<g>
	<g>
		<path class="st1" d="M549.25,393.4H207.47c-6.78,0-16.42,0.35-20.97,4.39c-7.97,6.13-105.25,71.18-50.42,71.37h484.56
			c54.94,0-42.6-65.36-50.42-71.37C565.65,393.73,555.92,393.4,549.25,393.4z"/>
		<path class="st1" d="M547.79,386.53H212.48c-6.66,0-16.11,0.35-20.57,4.39l-65.04,50.93c-0.04,9.75-1.05,20.33,15.58,20.39h475.38
			c16.6,0,15.62-10.68,15.58-20.39l-65.04-50.93C563.88,386.86,554.33,386.53,547.79,386.53z"/>
		<path class="st2" d="M558.43,376.86H235.07v0h-33.53c-9.19,0-19.97,2.49-23.16,6.07c-19.12,21.49-31.89,35.83-50.97,57.27
			c-3.51,3.94,3.27,6.33,16.03,6.33H524.9v0h91.63c12.76,0,19.54-2.39,16.03-6.33c-19.08-21.44-31.85-35.78-50.97-57.27
			C578.35,379.29,567.62,376.86,558.43,376.86z"/>
		<path class="st3" d="M557.95,112.03h-356.4c-9.54,0-17.34,7.8-17.34,17.34v230.15c0,9.54,7.8,17.34,17.34,17.34h356.4
			c9.54,0,17.34-7.8,17.34-17.34V129.37C575.29,119.83,567.48,112.03,557.95,112.03z"/>
		<rect x="202.26" y="131.58" class="st2" width="354.97" height="225.73"/>
		<path class="st3" d="M245.81,397.44c1.9,0,2.54,1.59,1.55,3.56c-1.05,2.01-3.44,3.67-5.39,3.67c-17.86,0-35.73,0-53.59,0
			c-1.91,0-2.14-1.66-0.61-3.67c1.5-1.98,4.14-3.56,6-3.56C211.13,397.44,228.45,397.44,245.81,397.44L245.81,397.44z M408.68,393.6
			c-1.83,0-3.48-1.52-3.67-3.36c-0.19-1.82,1.11-3.27,2.89-3.27c8.86,0,17.73,0,26.59,0c1.78,0,3.55,1.46,3.99,3.27
			c0.44,1.84-0.65,3.36-2.48,3.36C426.9,393.6,417.79,393.6,408.68,393.6L408.68,393.6z M366.32,393.6c-1.83,0-3.22-1.52-3.09-3.36
			c0.12-1.82,1.68-3.27,3.46-3.27c8.83,0,17.69,0,26.55,0c1.78,0,3.33,1.46,3.46,3.27c0.13,1.84-1.26,3.36-3.09,3.36
			C384.5,393.6,375.39,393.6,366.32,393.6L366.32,393.6z M323.84,393.6c-1.83,0-2.92-1.51-2.47-3.36c0.44-1.82,2.2-3.27,3.98-3.27
			c8.86,0,17.73,0,26.59,0c1.78,0,3.08,1.46,2.9,3.27c-0.19,1.84-1.84,3.36-3.67,3.36C342.06,393.6,332.95,393.6,323.84,393.6
			L323.84,393.6z M281.47,393.6c-1.83,0-2.69-1.52-1.93-3.36c0.75-1.82,2.8-3.27,4.58-3.27c8.83,0,17.69,0,26.55,0
			c1.74,0,2.8,1.45,2.3,3.27c-0.51,1.85-2.42,3.36-4.21,3.36C299.65,393.6,290.54,393.6,281.47,393.6L281.47,393.6z M239.03,393.6
			c-1.83,0-2.43-1.52-1.35-3.36c1.06-1.82,3.37-3.27,5.15-3.27c8.83,0,17.69,0,26.59,0c1.78,0,2.58,1.45,1.77,3.27
			c-0.83,1.85-3,3.36-4.83,3.36C257.21,393.6,248.1,393.6,239.03,393.6L239.03,393.6z M196.63,393.6c-1.83,0-2.1-1.52-0.7-3.36
			c1.38-1.82,3.86-3.27,5.64-3.27c8.86,0,17.73,0,26.55,0c1.78,0,2.29,1.45,1.17,3.27c-1.14,1.85-3.54,3.36-5.37,3.36
			C214.84,393.6,205.74,393.6,196.63,393.6L196.63,393.6z M535.93,393.6c-1.83,0-4.23-1.51-5.37-3.36
			c-1.13-1.82-0.62-3.28,1.16-3.28c8.9,0,17.76,0,26.62,0c1.78,0,4.3,1.46,5.68,3.28c1.4,1.84,1.09,3.36-0.74,3.36
			C554.19,393.6,545.08,393.6,535.93,393.6L535.93,393.6z M493.57,393.6c-1.83,0-4-1.51-4.83-3.36c-0.81-1.82-0.02-3.28,1.76-3.28
			c8.79,0,17.65,0,26.51,0c1.78,0,4.09,1.46,5.15,3.28c1.08,1.84,0.48,3.36-1.35,3.36C511.71,393.6,502.6,393.6,493.57,393.6
			L493.57,393.6z M451.16,393.6c-1.87,0-3.78-1.51-4.29-3.36c-0.5-1.82,0.55-3.27,2.37-3.27c8.83,0,17.69,0,26.55,0
			c1.78,0,3.84,1.46,4.59,3.28c0.76,1.84-0.1,3.36-1.93,3.36C469.34,393.6,460.23,393.6,451.16,393.6L451.16,393.6z M259.76,404.67
			c-1.91,0-2.67-1.66-1.7-3.67c0.91-1.98,3.19-3.56,5.09-3.56c9.02,0,18.04,0,27.11,0c1.86,0,2.83,1.59,2.14,3.56
			c-0.7,2.01-2.83,3.67-4.74,3.67C278.32,404.66,269.04,404.67,259.76,404.67L259.76,404.67z M302.74,404.66
			c-1.91,0-2.95-1.65-2.32-3.67c0.62-1.98,2.64-3.56,4.49-3.56c8.98,0,18.01,0,27.07,0c1.86,0,3.05,1.59,2.74,3.56
			c-0.36,2.01-2.18,3.67-4.09,3.67C321.31,404.66,312.02,404.66,302.74,404.66L302.74,404.66z M345.69,404.66
			c-1.91,0-3.19-1.65-2.89-3.67c0.25-1.98,1.96-3.56,3.82-3.56c9.02,0,18.08,0,27.14,0c1.86,0,3.36,1.59,3.33,3.56
			c-0.02,2.01-1.6,3.67-3.52,3.67C364.25,404.66,354.97,404.66,345.69,404.66L345.69,404.66z M388.67,404.66
			c-1.91,0-3.5-1.65-3.54-3.67c-0.04-1.98,1.45-3.56,3.3-3.56c9.02,0,18.01,0,27.07,0c1.86,0,3.62,1.58,3.97,3.56
			c0.31,2.01-0.99,3.67-2.9,3.67C407.24,404.66,397.96,404.66,388.67,404.66L388.67,404.66z M431.66,404.66
			c-1.91,0-3.78-1.65-4.16-3.67c-0.41-1.98,0.81-3.56,2.67-3.56c9.02,0,18.05,0,27.14,0c1.86,0,3.89,1.58,4.52,3.56
			c0.65,2.01-0.38,3.67-2.29,3.67C450.22,404.66,440.94,404.66,431.66,404.66L431.66,404.66z M474.64,404.66
			c-1.91,0-4.06-1.65-4.77-3.67c-0.7-1.98,0.25-3.56,2.11-3.56c9.02,0,18.05,0,27.03,0c1.86,0,4.15,1.58,5.16,3.56
			c0.99,2.01,0.24,3.67-1.68,3.67C493.21,404.66,483.93,404.66,474.64,404.66L474.64,404.66z M517.9,404.66
			c-1.91,0-4.3-1.65-5.35-3.67c-1.07-1.98-0.42-3.56,1.44-3.56c17.36,0,34.76,0,52.16,0c1.86,0,4.54,1.58,6.04,3.56
			c1.53,2.01,1.26,3.67-0.65,3.67C553.63,404.66,535.77,404.66,517.9,404.66L517.9,404.66z M179.35,416.77c-2,0-2.18-1.81-0.51-4.01
			c1.64-2.17,4.47-3.9,6.41-3.9c11.5,0,22.99,0,34.53,0c1.94,0,2.45,1.73,1.15,3.9c-1.32,2.2-4,4.01-6,4.01
			C203.04,416.77,191.19,416.77,179.35,416.77L179.35,416.77z M230.52,416.77c-2,0-2.61-1.81-1.35-4.01c1.23-2.17,3.8-3.9,5.75-3.9
			c10.78,0,21.57,0,32.35,0c1.94,0,2.8,1.73,1.9,3.9c-0.92,2.2-3.31,4.01-5.31,4.01C252.74,416.77,241.63,416.77,230.52,416.77
			L230.52,416.77z M574.66,408.86c1.94,0,4.88,1.73,6.53,3.9c1.67,2.21,1.37,4.01-0.63,4.01c-11.89,0-23.73,0-35.57,0
			c-2,0-4.68-1.81-6-4.01c-1.3-2.17-0.79-3.9,1.15-3.9C551.63,408.86,563.12,408.86,574.66,408.86L574.66,408.86z M524.99,408.86
			c1.94,0,4.51,1.73,5.74,3.9c1.25,2.21,0.65,4.01-1.35,4.01c-11.11,0-22.22,0-33.33,0c-2,0-4.39-1.81-5.31-4.01
			c-0.91-2.17-0.04-3.9,1.9-3.9C503.42,408.86,514.2,408.86,524.99,408.86L524.99,408.86z M474.64,408.86c1.94,0,4.18,1.73,4.99,3.9
			c0.83,2.21-0.12,4.01-2.12,4.01c-32.51,0-65.02,0-97.49,0s-64.94,0-97.41,0c-2,0-2.96-1.81-2.13-4.01c0.81-2.17,3.05-3.9,4.99-3.9
			c31.52,0,63.03,0,94.55,0C411.53,408.86,443.08,408.86,474.64,408.86z"/>
		<path class="st1" d="M325.92,437.97c-2.04,0-3.47-0.99-4.12-2.55c-0.63-1.51-0.52-3.51,0.44-5.61c0.9-1.97,2.39-3.68,4.05-4.87
			c1.61-1.16,3.44-1.86,5.12-1.86c23.9,0,73.47,0,97.37,0c1.67,0,3.48,0.7,5.07,1.86c1.64,1.19,3.1,2.9,3.96,4.87
			c0.91,2.1,0.99,4.1,0.32,5.61c-0.68,1.56-2.14,2.55-4.18,2.55C406.5,437.97,353.38,437.97,325.92,437.97z"/>
	</g>
</g>
<g>
	<path class="st4" d="M462.99,359.8l-0.46-0.76c0.63-0.38,1.26-0.76,1.88-1.15l0.47,0.75C464.26,359.03,463.63,359.42,462.99,359.8z
		"/>
	<path class="st4" d="M316.14,356.92c-1.24-0.81-2.48-1.65-3.68-2.5l0.51-0.73c1.2,0.84,2.43,1.67,3.66,2.48L316.14,356.92z
		 M468.63,356.22l-0.49-0.74c1.22-0.82,2.45-1.66,3.64-2.52l0.52,0.72C471.09,354.55,469.85,355.4,468.63,356.22z M308.85,351.8
		c-1.18-0.88-2.36-1.8-3.51-2.73l0.55-0.69c1.15,0.92,2.32,1.83,3.49,2.71L308.85,351.8z M475.87,351.04l-0.54-0.7
		c1.17-0.89,2.34-1.82,3.47-2.74l0.56,0.69C478.22,349.21,477.04,350.14,475.87,351.04z M301.91,346.23
		c-1.12-0.96-2.24-1.95-3.33-2.95l0.6-0.65c1.08,0.99,2.2,1.98,3.31,2.93L301.91,346.23z M482.76,345.4l-0.58-0.67
		c1.11-0.97,2.22-1.96,3.29-2.96l0.6,0.65C484.99,343.43,483.88,344.43,482.76,345.4z M295.34,340.23
		c-1.05-1.03-2.11-2.09-3.14-3.16l0.64-0.61c1.02,1.06,2.07,2.12,3.12,3.13L295.34,340.23z M489.28,339.34l-0.62-0.63
		c1.04-1.03,2.08-2.09,3.09-3.16l0.64,0.61C491.37,337.23,490.32,338.31,489.28,339.34z M289.17,333.82
		c-0.99-1.1-1.98-2.22-2.93-3.35l0.68-0.57c0.95,1.12,1.93,2.24,2.91,3.33L289.17,333.82z M495.39,332.87l-0.66-0.59
		c0.98-1.1,1.95-2.23,2.88-3.35l0.68,0.57C497.35,330.63,496.38,331.76,495.39,332.87z M283.41,327.03
		c-0.92-1.16-1.83-2.35-2.71-3.53l0.71-0.53c0.87,1.17,1.78,2.35,2.69,3.51L283.41,327.03z M501.08,326.03l-0.7-0.55
		c0.91-1.16,1.8-2.35,2.66-3.53l0.72,0.52C502.89,323.66,501.99,324.86,501.08,326.03z M278.1,319.88c-0.84-1.22-1.68-2.46-2.48-3.7
		l0.74-0.48c0.8,1.23,1.62,2.47,2.46,3.68L278.1,319.88z M506.32,318.84l-0.73-0.5c0.83-1.22,1.64-2.46,2.43-3.69l0.75,0.47
		C507.98,316.37,507.15,317.62,506.32,318.84z M273.27,312.4c-0.76-1.27-1.52-2.56-2.24-3.85l0.77-0.43
		c0.72,1.28,1.46,2.57,2.22,3.83L273.27,312.4z M511.09,311.33l-0.76-0.45c0.75-1.27,1.48-2.56,2.18-3.84l0.78,0.43
		C512.58,308.75,511.84,310.05,511.09,311.33z M268.92,304.63c-0.68-1.31-1.35-2.65-1.98-3.99l0.8-0.38
		c0.64,1.33,1.3,2.66,1.97,3.97L268.92,304.63z M515.36,303.53l-0.79-0.4c0.67-1.32,1.32-2.65,1.93-3.97l0.8,0.37
		C516.68,300.86,516.03,302.2,515.36,303.53z M265.08,296.58c-0.59-1.35-1.17-2.73-1.72-4.11l0.82-0.33
		c0.55,1.37,1.13,2.75,1.71,4.08L265.08,296.58z M519.12,295.47l-0.82-0.35c0.58-1.35,1.14-2.73,1.67-4.09l0.83,0.32
		C520.26,292.72,519.7,294.11,519.12,295.47z M261.77,288.31c-0.51-1.4-1-2.81-1.45-4.22l0.84-0.28c0.45,1.39,0.94,2.8,1.44,4.19
		L261.77,288.31z M522.35,287.19l-0.84-0.29c0.49-1.38,0.96-2.79,1.4-4.19l0.84,0.27C523.31,284.39,522.83,285.8,522.35,287.19z
		 M259,279.83c-0.41-1.41-0.81-2.86-1.18-4.3l0.86-0.22c0.37,1.44,0.76,2.88,1.17,4.28L259,279.83z M525.03,278.72l-0.85-0.24
		c0.4-1.41,0.78-2.85,1.13-4.27l0.86,0.21C525.81,275.85,525.43,277.3,525.03,278.72z M256.79,271.19c-0.32-1.43-0.62-2.9-0.89-4.37
		l0.87-0.16c0.27,1.46,0.57,2.92,0.89,4.34L256.79,271.19z M527.16,270.09l-0.87-0.19c0.3-1.43,0.59-2.89,0.85-4.34l0.87,0.16
		C527.76,267.18,527.47,268.65,527.16,270.09z M255.15,262.42c-0.23-1.47-0.43-2.96-0.61-4.41l0.88-0.11
		c0.18,1.44,0.38,2.92,0.6,4.38L255.15,262.42z M528.73,261.33l-0.88-0.13c0.21-1.44,0.4-2.91,0.57-4.39l0.88,0.1
		C529.14,258.4,528.94,259.89,528.73,261.33z M254.07,253.59c-0.13-1.48-0.24-2.97-0.32-4.44l0.88-0.05
		c0.08,1.46,0.19,2.94,0.32,4.41L254.07,253.59z M529.74,252.49l-0.88-0.07c0.12-1.46,0.21-2.94,0.29-4.41l0.88,0.04
		C529.95,249.53,529.85,251.02,529.74,252.49z M253.56,244.7c-0.03-1.18-0.04-2.36-0.04-3.54l0-0.91l0.89,0.01l0,0.9
		c0,1.18,0.01,2.35,0.04,3.52L253.56,244.7z M530.17,243.6l-0.89-0.02c0.01-0.81,0.02-1.62,0.02-2.43c0-0.67,0-1.33-0.01-2
		l0.89-0.01c0.01,0.67,0.01,1.34,0.01,2.01C530.19,241.97,530.19,242.79,530.17,243.6z M254.51,235.84l-0.89-0.03
		c0.06-1.49,0.14-2.99,0.24-4.44l0.88,0.06C254.65,232.87,254.56,234.36,254.51,235.84z M529.16,234.74
		c-0.07-1.46-0.16-2.95-0.27-4.41l0.88-0.07c0.12,1.48,0.21,2.97,0.28,4.44L529.16,234.74z M255.12,227.02l-0.88-0.09
		c0.15-1.48,0.33-2.97,0.52-4.42l0.88,0.12C255.45,224.06,255.28,225.54,255.12,227.02z M528.47,225.93
		c-0.16-1.45-0.35-2.93-0.56-4.39l0.88-0.12c0.21,1.47,0.4,2.95,0.56,4.42L528.47,225.93z M256.31,218.25l-0.87-0.15
		c0.24-1.46,0.52-2.93,0.81-4.38l0.87,0.17C256.82,215.34,256.55,216.8,256.31,218.25z M527.22,217.17
		c-0.26-1.47-0.54-2.93-0.84-4.34l0.87-0.18c0.3,1.43,0.58,2.9,0.84,4.37L527.22,217.17z M258.05,209.58l-0.86-0.2
		c0.34-1.44,0.7-2.89,1.09-4.32l0.86,0.23C258.75,206.71,258.39,208.15,258.05,209.58z M525.41,208.52
		c-0.35-1.43-0.72-2.87-1.12-4.28l0.85-0.24c0.39,1.42,0.77,2.87,1.12,4.31L525.41,208.52z M260.35,201.04l-0.85-0.26
		c0.43-1.42,0.89-2.85,1.37-4.24l0.84,0.29C261.24,198.21,260.78,199.63,260.35,201.04z M523.04,200c-0.44-1.41-0.91-2.83-1.4-4.21
		l0.84-0.29c0.49,1.39,0.96,2.82,1.41,4.24L523.04,200z M263.2,192.67l-0.83-0.31c0.52-1.38,1.07-2.77,1.64-4.14l0.82,0.34
		C264.27,189.92,263.72,191.31,263.2,192.67z M520.11,191.62c-0.53-1.36-1.09-2.75-1.66-4.11l0.82-0.35
		c0.58,1.37,1.15,2.76,1.68,4.14L520.11,191.62z M266.58,184.52l-0.81-0.37c0.61-1.35,1.25-2.7,1.9-4.01l0.79,0.39
		C267.82,181.84,267.19,183.18,266.58,184.52z M516.65,183.46c-0.62-1.33-1.26-2.67-1.93-3.99l0.79-0.4
		c0.67,1.33,1.32,2.68,1.94,4.02L516.65,183.46z M270.48,176.6l-0.78-0.42c0.69-1.3,1.42-2.61,2.15-3.89l0.77,0.44
		C271.89,174.01,271.17,175.31,270.48,176.6z M512.67,175.55c-0.71-1.3-1.44-2.6-2.18-3.86l0.76-0.45c0.74,1.26,1.48,2.57,2.2,3.88
		L512.67,175.55z M274.88,168.95l-0.75-0.47c0.77-1.25,1.58-2.51,2.4-3.74l0.74,0.49C276.45,166.46,275.65,167.71,274.88,168.95z
		 M508.19,167.91c-0.79-1.24-1.6-2.49-2.42-3.71l0.73-0.5c0.83,1.22,1.65,2.48,2.44,3.73L508.19,167.91z M279.76,161.59l-0.72-0.51
		c0.86-1.21,1.75-2.42,2.63-3.58l0.71,0.54C281.5,159.19,280.62,160.39,279.76,161.59z M503.22,160.58
		c-0.86-1.18-1.75-2.37-2.65-3.54l0.7-0.54c0.91,1.17,1.81,2.37,2.67,3.56L503.22,160.58z M285.11,154.56l-0.69-0.56
		c0.92-1.14,1.88-2.28,2.86-3.41l0.67,0.58C286.98,152.29,286.03,153.43,285.11,154.56z M497.8,153.58
		c-0.93-1.13-1.9-2.26-2.87-3.36l0.66-0.59c0.98,1.11,1.96,2.25,2.89,3.38L497.8,153.58z M290.9,147.88l-0.65-0.6
		c1-1.08,2.03-2.16,3.07-3.22l0.63,0.62C292.92,145.73,291.89,146.81,290.9,147.88z M491.95,146.95c-1-1.06-2.04-2.13-3.08-3.17
		l0.62-0.63c1.05,1.05,2.09,2.12,3.1,3.19L491.95,146.95z M297.11,141.58l-0.61-0.64c1.07-1.01,2.17-2.03,3.27-3.02l0.59,0.66
		C299.26,139.57,298.16,140.58,297.11,141.58z M485.68,140.71c-1.07-1-2.17-2-3.28-2.97l0.59-0.67c1.11,0.97,2.22,1.98,3.3,2.99
		L485.68,140.71z M303.7,135.69l-0.57-0.68c1.13-0.94,2.29-1.89,3.46-2.8l0.55,0.7C305.98,133.82,304.82,134.76,303.7,135.69z
		 M479.04,134.89c-1.13-0.93-2.3-1.86-3.46-2.75l0.54-0.7c1.17,0.9,2.34,1.83,3.48,2.77L479.04,134.89z M310.67,130.24l-0.52-0.71
		c1.19-0.87,2.41-1.74,3.63-2.58l0.5,0.73C313.07,128.51,311.85,129.37,310.67,130.24z M472.03,129.5c-1.2-0.86-2.42-1.71-3.63-2.52
		l0.49-0.74c1.22,0.82,2.44,1.67,3.65,2.54L472.03,129.5z M317.97,125.23l-0.48-0.75c1.24-0.79,2.52-1.58,3.79-2.34l0.45,0.76
		C320.47,123.66,319.21,124.45,317.97,125.23z M464.7,124.58c-1.25-0.78-2.52-1.55-3.78-2.28l0.45-0.77c1.27,0.74,2.55,1.51,3.8,2.3
		L464.7,124.58z M325.59,120.71l-0.43-0.78c1.31-0.72,2.63-1.42,3.94-2.09l0.4,0.79C328.2,119.3,326.88,119.99,325.59,120.71z
		 M457.07,120.13c-1.29-0.7-2.61-1.38-3.92-2.03l0.4-0.79c1.32,0.66,2.64,1.35,3.94,2.05L457.07,120.13z M333.48,116.68l-0.38-0.8
		c1.33-0.63,2.7-1.24,4.07-1.83l0.35,0.81C336.16,115.45,334.8,116.06,333.48,116.68z M449.18,116.19c-1.34-0.61-2.7-1.21-4.04-1.78
		l0.34-0.82c1.35,0.57,2.72,1.17,4.06,1.79L449.18,116.19z M341.62,113.18l-0.32-0.82c1.38-0.54,2.78-1.07,4.18-1.56l0.3,0.84
		C344.38,112.12,342.99,112.64,341.62,113.18z M441.06,112.77c-1.37-0.53-2.77-1.04-4.15-1.52l0.29-0.84c1.39,0.48,2.8,1,4.18,1.53
		L441.06,112.77z M349.98,110.2l-0.27-0.84c1.4-0.45,2.83-0.88,4.26-1.29l0.24,0.85C352.79,109.33,351.37,109.76,349.98,110.2z
		 M432.7,109.88c-1.4-0.43-2.82-0.85-4.24-1.24l0.24-0.85c1.43,0.39,2.87,0.81,4.27,1.25L432.7,109.88z M358.48,107.79l-0.21-0.86
		c1.43-0.36,2.89-0.7,4.34-1.01l0.19,0.87C361.35,107.1,359.91,107.43,358.48,107.79z M424.18,107.53
		c-1.43-0.34-2.88-0.67-4.32-0.97l0.18-0.87c1.44,0.3,2.91,0.63,4.34,0.97L424.18,107.53z M367.13,105.93l-0.16-0.87
		c1.46-0.26,2.93-0.51,4.39-0.72l0.13,0.88C370.04,105.42,368.57,105.66,367.13,105.93z M415.52,105.74
		c-1.45-0.25-2.92-0.48-4.37-0.69l0.12-0.88c1.46,0.21,2.94,0.44,4.4,0.69L415.52,105.74z M375.87,104.63l-0.1-0.88
		c1.47-0.17,2.96-0.32,4.43-0.44l0.07,0.88C378.81,104.31,377.33,104.46,375.87,104.63z M406.76,104.51
		c-1.45-0.16-2.94-0.29-4.4-0.4l0.07-0.88c1.48,0.11,2.97,0.25,4.43,0.41L406.76,104.51z M384.69,103.89l-0.05-0.89
		c1.47-0.08,2.97-0.13,4.45-0.16l0.02,0.89C387.63,103.76,386.15,103.82,384.69,103.89z M397.94,103.84
		c-1.47-0.06-2.95-0.11-4.42-0.12l0.01-0.89c1.47,0.02,2.97,0.06,4.44,0.12L397.94,103.84z"/>
	<path class="st4" d="M321.97,360.54c-0.64-0.38-1.28-0.76-1.91-1.14l0.46-0.76c0.63,0.38,1.26,0.76,1.9,1.13L321.97,360.54z"/>
</g>
<g class="st5">
	<path class="st4" d="M474.77,179.86c-0.69,0-1.33,0.17-1.91,0.44c0.01-0.15,0.02-0.29,0.02-0.44c0-4.7-3.81-8.5-8.5-8.5
		c-3.42,0-6.36,2.02-7.71,4.93c-0.72-0.89-1.81-1.47-3.04-1.47c-2.17,0-3.93,1.76-3.93,3.93c0,0.47,0.1,0.91,0.24,1.32
		c-0.41-0.13-0.84-0.21-1.3-0.21c-2.48,0-4.49,2.01-4.49,4.49c0,2.48,2.01,4.49,4.49,4.49h26.13c2.48,0,4.49-2.01,4.49-4.49
		C479.26,181.87,477.25,179.86,474.77,179.86z"/>
	<path class="st4" d="M331.47,182.91c-0.78,0-1.51,0.19-2.17,0.5c0.01-0.17,0.03-0.33,0.03-0.5c0-5.33-4.32-9.66-9.66-9.66
		c-3.88,0-7.22,2.3-8.76,5.6c-0.82-1.01-2.05-1.67-3.46-1.67c-2.47,0-4.47,2-4.47,4.47c0,0.53,0.11,1.03,0.28,1.5
		c-0.47-0.14-0.96-0.24-1.48-0.24c-2.82,0-5.1,2.28-5.1,5.1c0,2.82,2.28,5.1,5.1,5.1h29.68c2.82,0,5.1-2.28,5.1-5.1
		C336.57,185.2,334.28,182.91,331.47,182.91z"/>
	<path class="st4" d="M341.58,63.93c0.76,0,1.48,0.19,2.13,0.49c-0.01-0.16-0.02-0.33-0.02-0.49c0-5.22,4.23-9.45,9.45-9.45
		c3.8,0,7.07,2.25,8.57,5.48c0.8-0.99,2.01-1.63,3.38-1.63c2.42,0,4.37,1.96,4.37,4.37c0,0.52-0.11,1.01-0.27,1.47
		c0.46-0.14,0.94-0.24,1.44-0.24c2.76,0,4.99,2.23,4.99,4.99c0,2.76-2.23,4.99-4.99,4.99h-29.06c-2.76,0-4.99-2.23-4.99-4.99
		C336.59,66.16,338.83,63.93,341.58,63.93z"/>
	<path class="st4" d="M260.89,107.88c0.47,0,0.91,0.11,1.31,0.3c-0.01-0.1-0.02-0.2-0.02-0.3c0-3.22,2.61-5.84,5.84-5.84
		c2.35,0,4.36,1.39,5.29,3.38c0.5-0.61,1.24-1.01,2.09-1.01c1.49,0,2.7,1.21,2.7,2.7c0,0.32-0.07,0.62-0.17,0.91
		c0.28-0.09,0.58-0.15,0.89-0.15c1.7,0,3.08,1.38,3.08,3.08c0,1.7-1.38,3.08-3.08,3.08h-17.94c-1.7,0-3.08-1.38-3.08-3.08
		C257.81,109.26,259.19,107.88,260.89,107.88z"/>
	<path class="st4" d="M505,90.59c-0.4,0-0.78,0.1-1.12,0.26c0-0.09,0.01-0.17,0.01-0.26c0-2.76-2.24-5-5-5
		c-2.01,0-3.74,1.19-4.53,2.9c-0.42-0.52-1.06-0.86-1.79-0.86c-1.28,0-2.31,1.04-2.31,2.31c0,0.27,0.06,0.53,0.14,0.78
		c-0.24-0.07-0.5-0.13-0.76-0.13c-1.46,0-2.64,1.18-2.64,2.64c0,1.46,1.18,2.64,2.64,2.64H505c1.46,0,2.64-1.18,2.64-2.64
		C507.63,91.78,506.45,90.59,505,90.59z"/>
	<path class="st4" d="M330.98,163.82c0.49,0,0.95,0.12,1.37,0.32c-0.01-0.11-0.02-0.21-0.02-0.32c0-3.36,2.72-6.08,6.08-6.08
		c2.44,0,4.54,1.45,5.51,3.52c0.52-0.64,1.29-1.05,2.17-1.05c1.55,0,2.81,1.26,2.81,2.81c0,0.33-0.07,0.65-0.17,0.94
		c0.3-0.09,0.6-0.15,0.93-0.15c1.77,0,3.21,1.44,3.21,3.21c0,1.77-1.44,3.21-3.21,3.21h-18.68c-1.77,0-3.21-1.44-3.21-3.21
		C327.78,165.25,329.21,163.82,330.98,163.82z"/>
</g>
<g>
	<g>
		<polygon class="st6" points="279.87,312.31 279.77,263.93 279.77,261.97 240.91,262.05 240.91,264.01 241.01,312.39 
			241.02,313.74 279.88,313.66 		"/>
		
			<rect x="239.6" y="265.33" transform="matrix(1 -2.071668e-03 2.071668e-03 1 -0.5992 0.5372)" class="st7" width="38.86" height="48.38"/>
		
			<rect x="239.65" y="313.71" transform="matrix(1 -2.071668e-03 2.071668e-03 1 -0.6507 0.5374)" class="st4" width="38.86" height="1.35"/>
		
			<rect x="239.55" y="263.38" transform="matrix(1 -2.074247e-03 2.074247e-03 1 -0.5478 0.5378)" class="st4" width="38.86" height="1.95"/>
		
			<rect x="239.6" y="263.41" transform="matrix(1 -2.045237e-03 2.045237e-03 1 -0.5911 0.4931)" class="st8" width="2.44" height="51.68"/>
		<path class="st4" d="M271.02,295.84c-0.12,0-0.23,0.05-0.31,0.12l-7.69-5.95c0.03-0.06,0.05-0.13,0.05-0.2
			c0-0.25-0.2-0.46-0.46-0.45c-0.21,0-0.38,0.14-0.43,0.33c-4.39-0.2-11.71-0.58-13.55-0.78c0-0.02,0.01-0.04,0.01-0.06
			c0-0.25-0.2-0.46-0.46-0.45c-0.25,0-0.46,0.2-0.45,0.46c0,0.18,0.11,0.33,0.26,0.41l-3.15,7.58c-0.05-0.02-0.1-0.03-0.15-0.03
			c-0.25,0-0.46,0.2-0.45,0.46c0,0.25,0.2,0.46,0.46,0.45c0.08,0,0.16-0.02,0.23-0.06l4.24,6.35c-0.09,0.08-0.15,0.2-0.15,0.33
			c0,0.25,0.2,0.46,0.46,0.45c0.18,0,0.34-0.11,0.41-0.27l8.81,2.85c-0.01,0.04-0.02,0.08-0.02,0.12c0,0.25,0.2,0.46,0.46,0.45
			c0.25,0,0.45-0.2,0.45-0.46c0-0.11-0.04-0.21-0.11-0.29l11.3-10.53c0.07,0.05,0.16,0.07,0.25,0.07c0.25,0,0.46-0.2,0.45-0.46
			C271.48,296.04,271.28,295.84,271.02,295.84z M259.1,295.58c0.04,0,0.08-0.01,0.12-0.02l1.82,4.45c-0.06,0.03-0.12,0.07-0.16,0.13
			l-7.57-5.41c0.03-0.05,0.05-0.11,0.06-0.17l5.27,0.52c0,0.01,0,0.03,0,0.04C258.65,295.38,258.85,295.58,259.1,295.58z
			 M259.28,295.55c0.15-0.06,0.26-0.2,0.28-0.37l11.02,1.1c0,0.01,0,0.02,0,0.03c0,0.08,0.02,0.15,0.06,0.21l-8.98,3.72
			c-0.07-0.15-0.23-0.26-0.41-0.26c-0.05,0-0.1,0.01-0.15,0.03L259.28,295.55z M262.62,290.27c0.16,0,0.3-0.08,0.38-0.21l7.68,5.94
			c-0.05,0.06-0.09,0.13-0.1,0.21l-11.02-1.1c0-0.14-0.06-0.26-0.16-0.34l2.99-4.58C262.46,290.24,262.53,290.27,262.62,290.27z
			 M262.19,289.97c0.03,0.08,0.09,0.15,0.16,0.21l-2.98,4.57c-0.07-0.05-0.16-0.08-0.26-0.08c-0.22,0-0.4,0.16-0.44,0.36l-5.27-0.52
			c0-0.01,0-0.01,0-0.02c0-0.06-0.01-0.12-0.04-0.18L262.19,289.97z M248.62,288.95c2.15,0.25,11.16,0.68,13.54,0.79
			c0,0.02-0.01,0.05-0.01,0.07c0,0.04,0.01,0.07,0.01,0.11l-8.85,4.34c-0.08-0.14-0.23-0.23-0.4-0.23c-0.1,0-0.2,0.04-0.27,0.09
			l-1.4-1.66l-2.77-3.29C248.56,289.12,248.6,289.04,248.62,288.95z M244.88,296.86l3.15-7.58c0.05,0.02,0.1,0.03,0.15,0.03
			c0.1,0,0.2-0.04,0.27-0.09c0.53,0.62,1.66,1.97,2.65,3.14l0.24,0.28c0.04,0.05,0.08,0.09,0.11,0.14l1.17,1.38
			c-0.09,0.08-0.14,0.2-0.14,0.33c0,0.04,0.01,0.08,0.02,0.12l-7.39,2.49C245.06,296.99,244.98,296.91,244.88,296.86z
			 M245.12,297.15l7.39-2.49c0.02,0.06,0.06,0.11,0.11,0.16l-2.82,3.28c-0.08-0.08-0.2-0.13-0.32-0.13c-0.23,0-0.42,0.17-0.45,0.4
			l-3.88-1.1l0,0C245.14,297.22,245.13,297.18,245.12,297.15z M249.2,303.97l-4.24-6.34c0.1-0.07,0.16-0.18,0.18-0.31l3.88,1.09
			c0,0,0,0.01,0,0.01c0,0.24,0.19,0.44,0.43,0.45l-0.05,5.02C249.32,303.9,249.25,303.93,249.2,303.97z M258.71,307.33l-8.81-2.85
			c0.01-0.04,0.02-0.09,0.02-0.14c0-0.25-0.2-0.46-0.46-0.45c-0.01,0-0.01,0-0.02,0l0.05-5.01c0.09,0,0.17-0.03,0.24-0.08l9.04,8.41
			C258.75,307.24,258.72,307.28,258.71,307.33z M258.81,307.17l-9.04-8.41c0.09-0.08,0.15-0.2,0.15-0.34c0-0.11-0.04-0.2-0.1-0.28
			l2.83-3.29c0.08,0.06,0.17,0.1,0.28,0.1c0.06,0,0.12-0.01,0.17-0.03l4.75,9.97l1.06,2.21
			C258.88,307.12,258.84,307.14,258.81,307.17z M259.13,307.04c-0.06,0-0.12,0.01-0.17,0.03l-5.81-12.19
			c0.05-0.03,0.1-0.07,0.13-0.11l7.57,5.41c-0.04,0.07-0.07,0.15-0.07,0.24c0,0.2,0.13,0.36,0.3,0.43l-1.85,6.2
			C259.2,307.04,259.16,307.04,259.13,307.04z M259.44,307.17c-0.05-0.04-0.1-0.08-0.16-0.1l1.85-6.2c0.03,0.01,0.07,0.01,0.11,0.01
			c0.25,0,0.46-0.2,0.45-0.46c0-0.05-0.01-0.1-0.03-0.15l8.99-3.72c0.02,0.03,0.05,0.06,0.08,0.09L259.44,307.17z"/>
		<g>
			
				<rect x="265.6" y="277.72" transform="matrix(1 -2.070289e-03 2.070289e-03 1 -0.5748 0.5591)" class="st4" width="8.31" height="0.38"/>
			
				<rect x="267" y="279.38" transform="matrix(1 -2.098669e-03 2.098669e-03 1 -0.5861 0.5668)" class="st4" width="5.53" height="0.38"/>
			
				<rect x="270.11" y="281.05" transform="matrix(1 -2.072997e-03 2.072997e-03 1 -0.5824 0.5645)" class="st4" width="3.81" height="0.38"/>
			
				<rect x="265.28" y="281.06" transform="matrix(1 -2.046703e-03 2.046703e-03 1 -0.5751 0.5474)" class="st4" width="3.81" height="0.38"/>
		</g>
	</g>
	<g>
		<path class="st6" d="M543.03,202.25l4.04-6.76l-6.8,2.8l-0.74,1.42l0.73-1.41l-1.64-7.17l-3.19,7.2l1.82,4.08l-1.21,2.3
			l-1.78-4.18l-1.88,4.5l1.59,3.6l-9.46,17.97c0,0,0.14,0.45,0.5,0.65c0.35,0.19,0.83,0.05,0.83,0.05l9.41-17.88l4.1-0.72l2.65-4.19
			l-4.68,0.98l1.24-2.35L543.03,202.25z"/>
		
			<ellipse transform="matrix(0.1602 -0.9871 0.9871 0.1602 218.4163 709.2618)" class="st6" cx="526.03" cy="226.27" rx="19.24" ry="19.24"/>
		
			<ellipse transform="matrix(0.1602 -0.9871 0.9871 0.1602 216.1621 708.6188)" class="st9" cx="524.52" cy="227.28" rx="19.24" ry="19.24"/>
		
			<ellipse transform="matrix(0.7071 -0.7071 0.7071 0.7071 -7.079 437.4604)" class="st4" cx="524.52" cy="227.28" rx="15.21" ry="15.21"/>
		
			<ellipse transform="matrix(0.1602 -0.9871 0.9871 0.1602 216.162 708.6188)" class="st9" cx="524.52" cy="227.28" rx="11.93" ry="11.93"/>
		<path class="st4" d="M532.74,227.28c0,4.54-3.68,8.22-8.22,8.22c-4.54,0-8.22-3.68-8.22-8.22c0-4.54,3.68-8.22,8.22-8.22
			C529.06,219.06,532.74,222.74,532.74,227.28z"/>
		<path class="st9" d="M529.08,227.28c0,2.52-2.04,4.56-4.56,4.56c-2.52,0-4.56-2.04-4.56-4.56c0-2.52,2.04-4.56,4.56-4.56
			C527.04,222.71,529.08,224.76,529.08,227.28z"/>
		<path class="st10" d="M540.81,201.56l3.61-7l-6.61,3.22l-0.65,1.46l0.64-1.46l-2.09-7.06l-2.73,7.39l2.07,3.96l-1.06,2.37
			l-2.04-4.06l-1.59,4.61l1.81,3.5l-8.3,18.53c0,0,0.17,0.44,0.54,0.62c0.36,0.17,0.84,0,0.84,0l8.26-18.43l4.04-0.98l2.38-4.35
			l-4.61,1.27l1.09-2.42L540.81,201.56z"/>
	</g>
	<g>
		<polygon class="st6" points="331.67,135.87 331.66,107.43 331.66,107.43 331.65,101.61 328.7,101.61 328.7,99.91 327.56,99.91 
			327.56,101.61 324.5,101.61 324.5,99.91 323.35,99.91 323.35,101.61 320.29,101.61 320.29,99.91 319.15,99.91 319.15,101.61 
			316.09,101.61 316.09,99.91 314.95,99.91 314.95,101.62 311.89,101.62 311.89,99.91 310.74,99.91 310.74,101.62 307.69,101.62 
			307.68,99.91 306.54,99.91 306.54,101.62 303.48,101.62 303.48,99.91 302.34,99.91 302.34,101.62 299.28,101.62 299.28,99.91 
			298.14,99.91 298.14,101.62 295.08,101.62 295.08,99.91 293.93,99.91 293.93,101.62 290.59,101.63 290.59,107.45 290.59,107.45 
			290.6,135.89 		"/>
		<rect x="288.46" y="103.76" class="st4" width="41.07" height="34.27"/>
		<rect x="288.45" y="103.76" class="st7" width="41.07" height="5.82"/>
		<g>
			<rect x="305.82" y="113.04" class="st11" width="5.08" height="3.63"/>
			<rect x="312.83" y="113.04" class="st11" width="5.08" height="3.63"/>
			<rect x="319.84" y="113.04" class="st11" width="5.08" height="3.63"/>
			<rect x="291.79" y="118.42" class="st12" width="5.08" height="3.63"/>
			<rect x="298.81" y="118.42" class="st11" width="5.08" height="3.63"/>
			<rect x="305.82" y="118.42" class="st11" width="5.08" height="3.63"/>
			<rect x="312.83" y="118.42" class="st12" width="5.08" height="3.63"/>
			<rect x="319.84" y="118.42" class="st11" width="5.08" height="3.63"/>
			<rect x="291.79" y="123.8" class="st11" width="5.08" height="3.63"/>
			<rect x="298.81" y="123.8" class="st12" width="5.08" height="3.63"/>
			<rect x="305.82" y="123.8" class="st11" width="5.08" height="3.63"/>
			<rect x="312.83" y="123.8" class="st11" width="5.08" height="3.63"/>
			<rect x="319.84" y="123.8" class="st11" width="5.08" height="3.63"/>
			<rect x="291.79" y="129.17" class="st11" width="5.08" height="3.63"/>
			<rect x="298.81" y="129.17" class="st11" width="5.08" height="3.63"/>
			<rect x="305.82" y="129.17" class="st11" width="5.08" height="3.63"/>
			<rect x="312.83" y="129.17" class="st12" width="5.08" height="3.63"/>
		</g>
		<g>
			<path class="st13" d="M293.64,106.45c0,0.69-0.56,1.26-1.26,1.26c-0.69,0-1.26-0.56-1.26-1.26s0.56-1.26,1.26-1.26
				C293.08,105.19,293.64,105.75,293.64,106.45z"/>
			<rect x="291.79" y="102.05" class="st4" width="1.14" height="4.28"/>
			<path class="st13" d="M297.84,106.45c0,0.69-0.56,1.26-1.26,1.26c-0.69,0-1.26-0.56-1.26-1.26c0-0.69,0.56-1.26,1.26-1.26
				C297.28,105.19,297.84,105.75,297.84,106.45z"/>
			<rect x="296" y="102.05" class="st4" width="1.14" height="4.28"/>
			<path class="st13" d="M302.05,106.45c0,0.69-0.56,1.26-1.26,1.26c-0.69,0-1.26-0.56-1.26-1.26s0.56-1.26,1.26-1.26
				C301.48,105.19,302.05,105.75,302.05,106.45z"/>
			<rect x="300.2" y="102.05" class="st4" width="1.14" height="4.28"/>
			<path class="st13" d="M306.25,106.45c0,0.69-0.56,1.26-1.26,1.26c-0.69,0-1.26-0.56-1.26-1.26s0.56-1.26,1.26-1.26
				C305.69,105.19,306.25,105.75,306.25,106.45z"/>
			<rect x="304.4" y="102.05" class="st4" width="1.14" height="4.28"/>
			<path class="st13" d="M310.45,106.45c0,0.69-0.56,1.26-1.26,1.26c-0.69,0-1.26-0.56-1.26-1.26c0-0.69,0.56-1.26,1.26-1.26
				C309.89,105.19,310.45,105.75,310.45,106.45z"/>
			<rect x="308.61" y="102.05" class="st4" width="1.14" height="4.28"/>
			<path class="st13" d="M314.66,106.45c0,0.69-0.56,1.26-1.26,1.26c-0.69,0-1.26-0.56-1.26-1.26s0.56-1.26,1.26-1.26
				C314.09,105.19,314.66,105.75,314.66,106.45z"/>
			<rect x="312.81" y="102.05" class="st4" width="1.14" height="4.28"/>
			<path class="st13" d="M318.86,106.45c0,0.69-0.56,1.26-1.26,1.26c-0.69,0-1.26-0.56-1.26-1.26s0.56-1.26,1.26-1.26
				C318.3,105.19,318.86,105.75,318.86,106.45z"/>
			<rect x="317.01" y="102.05" class="st4" width="1.14" height="4.28"/>
			<path class="st13" d="M323.06,106.45c0,0.69-0.56,1.26-1.26,1.26c-0.69,0-1.26-0.56-1.26-1.26c0-0.69,0.56-1.26,1.26-1.26
				C322.5,105.19,323.06,105.75,323.06,106.45z"/>
			<rect x="321.22" y="102.05" class="st4" width="1.14" height="4.28"/>
			<path class="st13" d="M327.26,106.45c0,0.69-0.56,1.26-1.26,1.26c-0.69,0-1.26-0.56-1.26-1.26c0-0.69,0.56-1.26,1.26-1.26
				C326.7,105.19,327.26,105.75,327.26,106.45z"/>
			<rect x="325.42" y="102.05" class="st4" width="1.14" height="4.28"/>
		</g>
		<g>
			<g>
				<rect x="292.39" y="118.99" class="st7" width="1.09" height="0.85"/>
				<rect x="299.38" y="118.99" class="st7" width="1.09" height="0.85"/>
				<rect x="306.37" y="118.99" class="st7" width="1.09" height="0.85"/>
				<rect x="313.36" y="118.99" class="st7" width="1.09" height="0.85"/>
				<rect x="320.35" y="118.99" class="st7" width="1.09" height="0.85"/>
				<rect x="306.37" y="113.89" class="st7" width="1.09" height="0.85"/>
				<rect x="313.36" y="113.89" class="st7" width="1.09" height="0.85"/>
				<rect x="320.35" y="113.89" class="st7" width="1.09" height="0.85"/>
				<rect x="292.39" y="124.39" class="st7" width="1.09" height="0.85"/>
				<rect x="299.38" y="124.39" class="st7" width="1.09" height="0.85"/>
				<rect x="306.37" y="124.39" class="st7" width="1.09" height="0.85"/>
				<rect x="313.36" y="124.39" class="st7" width="1.09" height="0.85"/>
				<rect x="320.35" y="124.39" class="st7" width="1.09" height="0.85"/>
				<rect x="292.39" y="129.81" class="st7" width="1.09" height="0.85"/>
				<rect x="299.38" y="129.81" class="st7" width="1.09" height="0.85"/>
				<rect x="306.37" y="129.81" class="st7" width="1.09" height="0.85"/>
				<rect x="313.36" y="129.81" class="st7" width="1.09" height="0.85"/>
			</g>
		</g>
	</g>
	<g>
		<polygon class="st6" points="541.8,313.63 541.8,311.11 541.8,311.11 541.75,266 541.75,263.79 502.63,263.84 502.63,264.91 
			502.63,264.91 502.68,311.3 502.68,311.3 502.69,313.67 		"/>
		
			<rect x="501.23" y="266.31" transform="matrix(1 -1.063489e-03 1.063489e-03 1 -0.3076 0.554)" class="st4" width="39.12" height="46.39"/>
		
			<rect x="501.26" y="312.56" transform="matrix(1 -1.068599e-03 1.068599e-03 1 -0.335 0.5567)" class="st14" width="39.12" height="2.52"/>
		
			<rect x="501.21" y="265.24" transform="matrix(1 -1.066046e-03 1.066046e-03 1 -0.2837 0.5553)" class="st14" width="39.12" height="2.38"/>
		
			<rect x="504.49" y="280.75" transform="matrix(1 -1.242516e-03 1.242516e-03 1 -0.349 0.6279)" class="st15" width="1.37" height="0.89"/>
		
			<rect x="506.5" y="279.79" transform="matrix(1 -1.083188e-03 1.083188e-03 1 -0.3038 0.5495)" class="st15" width="1.37" height="1.85"/>
		
			<rect x="508.51" y="277.61" transform="matrix(1 -1.068721e-03 1.068721e-03 1 -0.2985 0.5443)" class="st15" width="1.37" height="4.02"/>
		
			<rect x="510.52" y="273.25" transform="matrix(1 -1.061913e-03 1.061913e-03 1 -0.2943 0.543)" class="st15" width="1.37" height="8.38"/>
		
			<rect x="512.53" y="274.85" transform="matrix(1 -1.061978e-03 1.061978e-03 1 -0.2952 0.5452)" class="st15" width="1.37" height="6.78"/>
		
			<rect x="514.55" y="277.92" transform="matrix(1 -1.079243e-03 1.079243e-03 1 -0.3016 0.5562)" class="st15" width="1.37" height="3.71"/>
		
			<rect x="516.56" y="276.92" transform="matrix(1 -1.084806e-03 1.084806e-03 1 -0.3027 0.5613)" class="st15" width="1.37" height="4.7"/>
		
			<rect x="518.57" y="274.06" transform="matrix(1 -1.058228e-03 1.058228e-03 1 -0.2937 0.5496)" class="st15" width="1.37" height="7.56"/>
		
			<rect x="522.22" y="281.16" transform="matrix(1 -1.087429e-03 1.087429e-03 1 -0.3057 0.5688)" class="st16" width="1.37" height="0.46"/>
		
			<rect x="524.23" y="280.31" transform="matrix(1 -1.150394e-03 1.150394e-03 1 -0.3229 0.604)" class="st16" width="1.37" height="1.3"/>
		
			<rect x="526.24" y="278" transform="matrix(1 -1.078420e-03 1.078420e-03 1 -0.3014 0.5684)" class="st16" width="1.37" height="3.62"/>
		
			<rect x="528.25" y="279.21" transform="matrix(1 -1.125234e-03 1.125234e-03 1 -0.3152 0.5954)" class="st16" width="1.37" height="2.4"/>
		
			<rect x="530.26" y="274.05" transform="matrix(1 -1.071442e-03 1.071442e-03 1 -0.2974 0.569)" class="st16" width="1.37" height="7.56"/>
		
			<rect x="532.28" y="275.84" transform="matrix(1 -1.074970e-03 1.074970e-03 1 -0.2993 0.5731)" class="st16" width="1.37" height="5.77"/>
		
			<rect x="534.29" y="273.02" transform="matrix(1 -1.059580e-03 1.059580e-03 1 -0.2935 0.567)" class="st16" width="1.37" height="8.59"/>
		
			<rect x="536.3" y="274.38" transform="matrix(1 -1.066496e-03 1.066496e-03 1 -0.2962 0.5729)" class="st16" width="1.37" height="7.22"/>
		
			<rect x="504.5" y="294.47" transform="matrix(1 -1.016604e-03 1.016604e-03 1 -0.2996 0.5137)" class="st16" width="1.37" height="0.89"/>
		
			<rect x="506.51" y="292.56" transform="matrix(1 -1.109242e-03 1.109242e-03 1 -0.3258 0.5628)" class="st15" width="1.37" height="2.79"/>
		
			<rect x="508.52" y="288.4" transform="matrix(1 -1.078252e-03 1.078252e-03 1 -0.3144 0.5492)" class="st16" width="1.37" height="6.96"/>
		
			<rect x="510.54" y="290.22" transform="matrix(1 -1.071268e-03 1.071268e-03 1 -0.3134 0.5478)" class="st16" width="1.37" height="5.13"/>
		
			<rect x="512.55" y="286.29" transform="matrix(1 -1.071314e-03 1.071314e-03 1 -0.3113 0.55)" class="st15" width="1.37" height="9.05"/>
		
			<rect x="514.56" y="287.86" transform="matrix(1 -1.055035e-03 1.055035e-03 1 -0.3074 0.5438)" class="st15" width="1.37" height="7.49"/>
		
			<rect x="516.57" y="289.67" transform="matrix(1 -1.057305e-03 1.057305e-03 1 -0.309 0.5471)" class="st16" width="1.37" height="5.67"/>
		
			<rect x="518.59" y="287.78" transform="matrix(1 -1.071456e-03 1.071456e-03 1 -0.3121 0.5565)" class="st15" width="1.37" height="7.56"/>
		<rect x="522.23" y="293.89" class="st15" width="1.37" height="1.45"/>
		
			<rect x="524.24" y="294.03" transform="matrix(1 -1.073784e-03 1.073784e-03 1 -0.3161 0.5638)" class="st15" width="1.37" height="1.3"/>
		
			<rect x="526.25" y="291.72" transform="matrix(1 -1.078420e-03 1.078420e-03 1 -0.3162 0.5684)" class="st15" width="1.37" height="3.62"/>
		
			<rect x="528.27" y="290.69" transform="matrix(1 -1.077237e-03 1.077237e-03 1 -0.3153 0.57)" class="st15" width="1.37" height="4.64"/>
		
			<rect x="530.28" y="289.66" transform="matrix(1 -1.057324e-03 1.057324e-03 1 -0.309 0.5616)" class="st16" width="1.37" height="5.67"/>
		
			<rect x="532.29" y="287.97" transform="matrix(1 -1.059523e-03 1.059523e-03 1 -0.3087 0.5649)" class="st16" width="1.37" height="7.36"/>
		
			<rect x="534.3" y="286.74" transform="matrix(1 -1.082855e-03 1.082855e-03 1 -0.3148 0.5795)" class="st16" width="1.37" height="8.59"/>
		
			<rect x="536.31" y="288.1" transform="matrix(1 -1.052631e-03 1.052631e-03 1 -0.3068 0.5654)" class="st16" width="1.37" height="7.22"/>
		
			<rect x="504.52" y="306.05" transform="matrix(1 -1.041883e-03 1.041883e-03 1 -0.3198 0.5265)" class="st16" width="1.37" height="2.4"/>
		
			<rect x="506.53" y="304.34" transform="matrix(1 -1.044678e-03 1.044678e-03 1 -0.3198 0.53)" class="st15" width="1.37" height="4.12"/>
		
			<rect x="508.54" y="306.73" transform="matrix(1 -1.045478e-03 1.045478e-03 1 -0.3213 0.5326)" class="st16" width="1.37" height="1.72"/>
		
			<rect x="510.55" y="305.41" transform="matrix(1 -1.117428e-03 1.117428e-03 1 -0.3426 0.5715)" class="st16" width="1.37" height="3.04"/>
		
			<rect x="512.56" y="302.68" transform="matrix(1 -1.074933e-03 1.074933e-03 1 -0.3282 0.5519)" class="st15" width="1.37" height="5.77"/>
		
			<rect x="514.58" y="304.74" transform="matrix(1 -1.052205e-03 1.052205e-03 1 -0.3223 0.5423)" class="st16" width="1.37" height="3.71"/>
		
			<rect x="516.59" y="302.01" transform="matrix(1 -1.057641e-03 1.057641e-03 1 -0.3225 0.5473)" class="st15" width="1.37" height="6.43"/>
		
			<rect x="518.6" y="299.75" transform="matrix(1 -1.058858e-03 1.058858e-03 1 -0.3217 0.55)" class="st15" width="1.37" height="8.69"/>
		
			<rect x="522.24" y="307.98" transform="matrix(1 -1.087429e-03 1.087429e-03 1 -0.3348 0.5688)" class="st16" width="1.37" height="0.46"/>
		
			<rect x="524.26" y="307.13" transform="matrix(1 -1.150306e-03 1.150306e-03 1 -0.3537 0.604)" class="st16" width="1.37" height="1.3"/>
		
			<rect x="526.27" y="306.59" transform="matrix(1 -1.029810e-03 1.029810e-03 1 -0.3164 0.5428)" class="st16" width="1.37" height="1.84"/>
		
			<rect x="528.28" y="304" transform="matrix(1 -1.083423e-03 1.083423e-03 1 -0.3314 0.5733)" class="st16" width="1.37" height="4.43"/>
		
			<rect x="530.29" y="300.87" transform="matrix(1 -1.071442e-03 1.071442e-03 1 -0.3261 0.5691)" class="st15" width="1.37" height="7.56"/>
		
			<rect x="532.3" y="301.9" transform="matrix(1 -1.072320e-03 1.072320e-03 1 -0.3269 0.5717)" class="st15" width="1.37" height="6.53"/>
		
			<rect x="534.31" y="299.83" transform="matrix(1 -1.059568e-03 1.059568e-03 1 -0.3219 0.567)" class="st15" width="1.37" height="8.59"/>
		
			<rect x="536.33" y="300.67" transform="matrix(1 -1.058228e-03 1.058228e-03 1 -0.322 0.5685)" class="st15" width="1.37" height="7.75"/>
		<polygon class="st17" points="504.39,278 504.27,277.88 511.2,270.05 515.24,274.55 519.9,271.25 519.99,271.4 515.22,274.78 
			511.2,270.31 		"/>
		<polygon class="st17" points="522.3,278.8 522.2,278.67 526.89,274.74 528.72,275.69 530.85,271.37 532.82,273.72 534.95,270.2 
			537.81,272.77 537.7,272.9 534.98,270.47 532.84,274.02 530.89,271.69 528.79,275.92 526.91,274.95 		"/>
		<polygon class="st17" points="504.57,292.09 504.44,291.98 509.2,285.8 511.15,287.81 513.15,284.05 517.23,287.83 519.91,285.52 
			520.01,285.66 517.23,288.06 513.2,284.33 511.19,288.1 509.21,286.06 		"/>
		<polygon class="st17" points="524.79,292.59 522.18,292.1 522.21,291.93 524.75,292.4 534.69,283.89 537.81,286.02 537.72,286.17 
			534.71,284.11 		"/>
		<polygon class="st17" points="509.22,304.23 507.07,301.71 504.6,303.69 504.5,303.55 507.09,301.47 509.23,303.98 513.19,300.09 
			515.18,302.23 519.91,297.12 520.03,297.25 515.18,302.48 513.19,300.34 		"/>
		<polygon class="st17" points="522.3,305.93 522.19,305.79 531.14,297.72 532.9,299.72 535.25,297.06 537.8,298.54 537.72,298.7 
			535.29,297.28 532.9,299.98 531.13,297.97 		"/>
	</g>
	<g>
		<path class="st6" d="M521.85,144.79h-5h-22.72h-2.51v2.54l-1.69,0l0,1.26l1.69,0v3.29l-1.69,0l0,1.26l1.69,0v3.29l-1.69,0l0,1.26
			l1.69,0v3.29l-1.69,0l0,1.26l1.69,0v3.29l-1.69,0l0,1.26l1.69,0v3.29l-1.69,0l0,1.26l1.69,0v3.29l-1.69,0l0,1.26l1.69,0v3.29
			l-1.69,0l0,1.26l1.69,0v3.35h2.51h22.72h5c1.07,0,1.94-0.88,1.94-1.97v-35.09C523.79,145.67,522.92,144.79,521.85,144.79z"/>
		<path class="st7" d="M520.77,185.3h-28.12v-39.02h28.12c0.85,0,1.54,0.69,1.54,1.54v35.93
			C522.31,184.61,521.62,185.3,520.77,185.3z"/>
		<rect x="506.53" y="148.36" class="st4" width="13.36" height="34.58"/>
		<path class="st7" d="M513.82,185.3h-23.68v-39.02h23.68c1.93,0,3.49,1.56,3.49,3.49v32.03
			C517.31,183.73,515.75,185.3,513.82,185.3z"/>
		<g>
			<g>
				<path class="st14" d="M494.96,149.45c0,0.68-0.54,1.23-1.21,1.23c-0.67,0-1.21-0.55-1.21-1.23c0-0.68,0.54-1.23,1.21-1.23
					C494.41,148.22,494.96,148.77,494.96,149.45z"/>
				
					<rect x="490.38" y="146.89" transform="matrix(-3.163556e-04 -1 1 -3.163556e-04 341.712 640.5063)" class="st4" width="1.26" height="5.12"/>
			</g>
			<g>
				<path class="st14" d="M494.96,154c0,0.68-0.54,1.23-1.21,1.23c-0.67,0-1.21-0.55-1.21-1.23s0.54-1.23,1.21-1.23
					C494.41,152.78,494.96,153.33,494.96,154z"/>
				
					<rect x="490.38" y="151.44" transform="matrix(-3.163806e-04 -1 1 -3.163806e-04 337.1606 645.0591)" class="st4" width="1.26" height="5.12"/>
			</g>
			<g>
				<path class="st14" d="M494.96,158.55c0,0.68-0.54,1.23-1.21,1.23c-0.67,0-1.21-0.55-1.21-1.23c0-0.68,0.54-1.23,1.21-1.23
					C494.41,157.33,494.96,157.88,494.96,158.55z"/>
				
					<rect x="490.38" y="155.99" transform="matrix(-3.163556e-04 -1 1 -3.163556e-04 332.6091 649.6121)" class="st4" width="1.26" height="5.12"/>
			</g>
			<g>
				<path class="st14" d="M494.96,163.11c0,0.68-0.54,1.23-1.21,1.23c-0.67,0-1.21-0.55-1.21-1.23c0-0.68,0.54-1.23,1.21-1.23
					C494.41,161.88,494.96,162.43,494.96,163.11z"/>
				
					<rect x="490.38" y="160.55" transform="matrix(-3.163556e-04 -1 1 -3.163556e-04 328.0577 654.1649)" class="st4" width="1.26" height="5.12"/>
			</g>
			<g>
				<path class="st14" d="M494.96,167.66c0,0.68-0.54,1.23-1.21,1.23c-0.67,0-1.21-0.55-1.21-1.23s0.54-1.23,1.21-1.23
					C494.41,166.43,494.96,166.98,494.96,167.66z"/>
				
					<rect x="490.38" y="165.1" transform="matrix(-3.163806e-04 -1 1 -3.163806e-04 323.5063 658.7178)" class="st4" width="1.26" height="5.12"/>
			</g>
			<g>
				<path class="st14" d="M494.96,172.21c0,0.68-0.54,1.23-1.21,1.23c-0.67,0-1.21-0.55-1.21-1.23c0-0.68,0.54-1.23,1.21-1.23
					C494.41,170.98,494.96,171.53,494.96,172.21z"/>
				
					<rect x="490.38" y="169.65" transform="matrix(-3.163806e-04 -1 1 -3.163806e-04 318.9549 663.2706)" class="st4" width="1.26" height="5.12"/>
			</g>
			<g>
				<path class="st14" d="M494.96,176.76c0,0.68-0.54,1.23-1.21,1.23c-0.67,0-1.21-0.55-1.21-1.23c0-0.68,0.54-1.23,1.21-1.23
					C494.41,175.53,494.96,176.08,494.96,176.76z"/>
				
					<rect x="490.38" y="174.2" transform="matrix(-3.163556e-04 -1 1 -3.163556e-04 314.4034 667.8235)" class="st4" width="1.26" height="5.12"/>
			</g>
			<g>
				<path class="st14" d="M494.96,181.31c0,0.68-0.54,1.23-1.21,1.23c-0.67,0-1.21-0.55-1.21-1.23c0-0.68,0.54-1.23,1.21-1.23
					C494.41,180.08,494.96,180.63,494.96,181.31z"/>
				
					<rect x="490.38" y="178.75" transform="matrix(-3.163556e-04 -1 1 -3.163556e-04 309.852 672.3764)" class="st4" width="1.26" height="5.12"/>
			</g>
		</g>
		<g>
			<rect x="498.99" y="162.75" class="st17" width="13.62" height="1.06"/>
			<rect x="501.12" y="165.69" class="st17" width="9.15" height="1.06"/>
		</g>
		<g>
			<path class="st4" d="M501.67,155.42v3.81h-0.72l-1.9-2.32v2.32h-0.87v-3.81h0.73l1.89,2.32v-2.32H501.67z"/>
			<path class="st4" d="M502.33,157.33c0-1.13,0.88-1.97,2.09-1.97c1.2,0,2.09,0.83,2.09,1.97c0,1.14-0.89,1.97-2.09,1.97
				C503.22,159.3,502.33,158.46,502.33,157.33z M505.61,157.33c0-0.72-0.51-1.22-1.19-1.22c-0.68,0-1.19,0.5-1.19,1.22
				c0,0.72,0.51,1.22,1.19,1.22C505.1,158.55,505.61,158.05,505.61,157.33z"/>
			<path class="st4" d="M507.91,156.14h-1.22v-0.72h3.32v0.72h-1.22v3.09h-0.88V156.14z"/>
			<path class="st4" d="M513.44,158.53v0.71h-2.95v-3.81h2.88v0.71h-2v0.83h1.77v0.69h-1.77v0.88H513.44z"/>
		</g>
	</g>
	<g>
		<polygon class="st6" points="286.27,155.9 286.27,147.43 276.47,147.43 269.92,141.76 263.46,147.43 253.83,147.43 253.83,155.88 
			250.26,159.02 250.26,184.27 289.87,184.27 289.87,159.02 		"/>
		
			<rect x="248.32" y="160.95" transform="matrix(-1 -1.224647e-16 1.224647e-16 -1 536.2485 347.1653)" class="st12" width="39.61" height="25.26"/>
		<polygon class="st18" points="287.93,160.95 248.32,160.95 267.98,178.21 		"/>
		<polygon class="st12" points="287.93,160.95 248.32,160.95 267.98,143.7 		"/>
		<polygon class="st4" points="284.33,149.37 284.33,164.07 268.02,178.17 267.94,178.17 251.89,164.09 251.89,149.37 		"/>
		<polygon class="st12" points="287.93,186.21 248.32,186.21 267.98,168.96 		"/>
		<rect x="273.42" y="152.87" class="st15" width="7.13" height="0.83"/>
		<rect x="275.65" y="154.74" class="st15" width="4.9" height="0.83"/>
		<rect x="269.56" y="154.74" class="st15" width="4.05" height="0.83"/>
		<rect x="258.66" y="159.91" class="st17" width="18.91" height="1.04"/>
		<rect x="258.66" y="163.25" class="st17" width="18.91" height="1.04"/>
		<rect x="258.66" y="166.59" class="st17" width="18.91" height="1.04"/>
	</g>
	<g>
		<g>
			<path class="st6" d="M474.35,102.68c-3.14-3.14-7.31-4.86-11.75-4.86c-4.44,0-8.61,1.73-11.75,4.87
				c-3.14,3.15-4.86,7.32-4.86,11.76c0,4.43,1.73,8.6,4.86,11.75c0.82,0.82,1.36,2.49,1.93,4.27l0.03,0.08
				c0.69,2.11,1.46,4.5,2.94,6.37c0.74,0.92,1.91,1.47,3.13,1.47h7.46c1.23,0,2.4-0.56,3.14-1.49c1.49-1.89,2.3-4.41,2.95-6.44
				c0.57-1.78,1.11-3.46,1.92-4.26c3.14-3.13,4.87-7.31,4.87-11.75C479.22,110,477.49,105.83,474.35,102.68z M463.44,135.39h-1.68
				l0.02-6.69h0.85l0.8,0.02V135.39z M472.23,124.08c-1.31,1.31-1.96,3.33-2.65,5.46c-0.61,1.89-1.3,4.04-2.46,5.51
				c-0.17,0.22-0.47,0.35-0.79,0.35h-1.23v-7.18h0.25v-1.65h-0.21c0.06-0.36,0.15-0.89,0.29-1.56c0.27-1.2,0.71-2.79,1.33-4.3
				c0.16-0.38,0.31-0.76,0.49-1.12c0.19-0.36,0.35-0.72,0.54-1.05c0.2-0.33,0.37-0.67,0.57-0.95c0.2-0.28,0.37-0.57,0.56-0.81
				c0.38-0.49,0.7-0.88,0.96-1.13c0.25-0.25,0.39-0.4,0.39-0.4l-0.25-0.28c0,0-0.15,0.15-0.42,0.4c-0.27,0.24-0.63,0.64-1.03,1.13
				c-0.21,0.24-0.39,0.53-0.61,0.82c-0.23,0.29-0.4,0.62-0.62,0.96c-0.23,0.33-0.39,0.69-0.6,1.06c-0.2,0.36-0.37,0.75-0.55,1.13
				c-0.69,1.53-1.19,3.14-1.51,4.36c-0.21,0.77-0.33,1.39-0.39,1.75h-0.46c-0.05-0.01-0.08-0.03-0.12-0.04v-5.75h0.95v-1.64h-4.12
				v1.64h0.95v5.75c-0.04,0.01-0.08,0.03-0.12,0.04h-0.46c-0.07-0.36-0.19-0.98-0.38-1.75c-0.31-1.22-0.81-2.83-1.49-4.37
				c-0.19-0.38-0.35-0.76-0.54-1.13c-0.21-0.37-0.38-0.73-0.59-1.07c-0.22-0.33-0.39-0.67-0.62-0.96c-0.22-0.29-0.4-0.58-0.61-0.83
				c-0.4-0.49-0.76-0.88-1.03-1.14c-0.27-0.25-0.42-0.4-0.42-0.4l-0.35,0.38c0,0,0.14,0.14,0.39,0.39c0.25,0.24,0.58,0.63,0.96,1.12
				c0.2,0.23,0.37,0.52,0.56,0.8c0.21,0.28,0.38,0.62,0.57,0.95c0.21,0.32,0.37,0.69,0.55,1.04c0.18,0.36,0.33,0.74,0.5,1.11
				c0.63,1.51,1.07,3.1,1.35,4.29c0.15,0.67,0.24,1.2,0.3,1.56h-0.21v1.65h0.25v7.18h-1.22c-0.32,0-0.62-0.13-0.79-0.34
				c-1.14-1.44-1.83-3.56-2.44-5.43l-0.02-0.07c-0.68-2.13-1.33-4.14-2.66-5.47c-2.57-2.58-3.99-6-3.99-9.64
				c0-3.64,1.42-7.06,3.99-9.64c2.57-2.57,5.99-3.99,9.63-3.99c3.64,0,7.06,1.42,9.63,3.99c2.58,2.58,4,6,4,9.64
				C476.23,118.09,474.81,121.51,472.23,124.08z"/>
			<path class="st6" d="M468.17,138.65h-11.14c-0.45,0-0.81,0.36-0.81,0.81c0,0.45,0.36,0.81,0.81,0.81h11.14
				c0.45,0,0.81-0.36,0.81-0.81C468.99,139.02,468.62,138.65,468.17,138.65z"/>
			<path class="st6" d="M467.32,140.28h-9.44c-0.45,0-0.81,0.36-0.81,0.81c0,0.45,0.36,0.81,0.81,0.81h1.19
				c-0.45,0-0.81,0.36-0.81,0.81s0.36,0.81,0.81,0.81h0.78c0,0.45,0.36,0.81,0.81,0.81h3.87c0.45,0,0.81-0.36,0.81-0.81h0.78
				c0.45,0,0.81-0.36,0.81-0.81s-0.36-0.81-0.81-0.81h1.19c0.45,0,0.81-0.36,0.81-0.81C468.14,140.65,467.77,140.28,467.32,140.28z"
				/>
			<polygon class="st6" points="468.71,110.36 467.04,111.51 466.35,109.59 464.84,110.97 463.87,109.17 462.6,110.78 
				461.33,109.17 460.36,110.97 458.85,109.59 458.17,111.51 456.49,110.35 456.07,112.35 454.76,111.71 456.64,113.51 
				457.03,111.69 458.57,112.75 459.2,110.99 460.57,112.25 461.45,110.61 462.6,112.06 463.75,110.61 464.63,112.25 466,110.99 
				466.63,112.75 468.18,111.69 468.57,113.51 470.44,111.71 469.13,112.35 			"/>
		</g>
		<path class="st4" d="M468.24,116.77c0,0-0.15,0.15-0.42,0.4c-0.27,0.24-0.63,0.64-1.03,1.13c-0.21,0.24-0.39,0.53-0.61,0.82
			c-0.23,0.29-0.4,0.62-0.62,0.96c-0.23,0.33-0.39,0.69-0.6,1.06c-0.2,0.36-0.37,0.75-0.55,1.13c-0.69,1.53-1.19,3.14-1.51,4.36
			c-0.21,0.77-0.33,1.39-0.39,1.75h-0.46c-0.05-0.01-0.08-0.03-0.12-0.04v-5.75h0.95v-1.64h-4.12v1.64h0.95v5.75
			c-0.04,0.01-0.08,0.03-0.12,0.04h-0.46c-0.07-0.36-0.19-0.98-0.38-1.75c-0.31-1.22-0.81-2.83-1.49-4.37
			c-0.19-0.38-0.35-0.76-0.54-1.13c-0.21-0.37-0.38-0.73-0.59-1.07c-0.22-0.33-0.39-0.67-0.62-0.96c-0.22-0.29-0.4-0.58-0.61-0.83
			c-0.4-0.49-0.76-0.88-1.03-1.14c-0.27-0.25-0.42-0.4-0.42-0.4l-0.35,0.38c0,0,0.14,0.14,0.39,0.39c0.25,0.24,0.58,0.63,0.96,1.12
			c0.2,0.23,0.37,0.52,0.56,0.8c0.21,0.28,0.38,0.62,0.57,0.95c0.21,0.32,0.37,0.69,0.55,1.04c0.18,0.36,0.33,0.74,0.5,1.11
			c0.63,1.51,1.07,3.1,1.35,4.29c0.15,0.67,0.24,1.2,0.3,1.56h-0.21v1.65h0.25v8.57c0,0.03,0,0.06,0.01,0.08h2.48l-0.83-0.01
			l0.03-8.16h0.85l0.8,0.02v8.14l-0.01,0.01h1.66c0.01-0.03,0.01-0.06,0.01-0.08v-8.57h0.25v-1.65h-0.21
			c0.06-0.36,0.15-0.89,0.29-1.56c0.27-1.2,0.71-2.79,1.33-4.3c0.16-0.38,0.31-0.76,0.49-1.12c0.19-0.36,0.35-0.72,0.54-1.05
			c0.2-0.33,0.37-0.67,0.57-0.95c0.2-0.28,0.37-0.57,0.56-0.81c0.38-0.49,0.7-0.88,0.96-1.13c0.25-0.25,0.39-0.4,0.39-0.4
			L468.24,116.77z"/>
		<path class="st14" d="M466.38,140.45h-11.14c-0.45,0-0.81,0.36-0.81,0.81c0,0.45,0.36,0.81,0.81,0.81h11.14
			c0.45,0,0.81-0.36,0.81-0.81C467.19,140.81,466.83,140.45,466.38,140.45z"/>
		<path class="st14" d="M465.53,142.08h-9.44c-0.45,0-0.81,0.36-0.81,0.81c0,0.45,0.36,0.81,0.81,0.81h9.44
			c0.45,0,0.81-0.36,0.81-0.81C466.34,142.44,465.98,142.08,465.53,142.08z"/>
		<path class="st14" d="M464.34,143.71h-7.06c-0.45,0-0.81,0.36-0.81,0.81c0,0.45,0.36,0.81,0.81,0.81h0.78
			c0,0.45,0.36,0.81,0.81,0.81h3.87c0.45,0,0.81-0.36,0.81-0.81h0.78c0.45,0,0.81-0.36,0.81-0.81
			C465.15,144.07,464.78,143.71,464.34,143.71z"/>
		<polygon class="st4" points="466.92,112.15 465.24,113.3 464.55,111.39 463.05,112.77 462.08,110.96 460.81,112.58 459.53,110.96 
			458.56,112.77 457.06,111.39 456.37,113.3 454.7,112.15 454.28,114.15 452.97,113.51 454.84,115.31 455.23,113.48 456.77,114.54 
			457.4,112.78 458.78,114.04 459.66,112.4 460.81,113.86 461.95,112.4 462.83,114.04 464.21,112.78 464.84,114.54 466.38,113.48 
			466.77,115.31 468.64,113.51 467.34,114.15 		"/>
		<path class="st4" d="M468.24,116.77c0,0-0.15,0.15-0.42,0.4c-0.27,0.24-0.63,0.64-1.03,1.13c-0.21,0.24-0.39,0.53-0.61,0.82
			c-0.23,0.29-0.4,0.62-0.62,0.96c-0.23,0.33-0.39,0.69-0.6,1.06c-0.2,0.36-0.37,0.75-0.55,1.13c-0.69,1.53-1.19,3.14-1.51,4.36
			c-0.21,0.77-0.33,1.39-0.39,1.75h-0.46c-0.05-0.01-0.08-0.03-0.12-0.04v-5.75h0.95v-1.64h-4.12v1.64h0.95v5.75
			c-0.04,0.01-0.08,0.03-0.12,0.04h-0.46c-0.07-0.36-0.19-0.98-0.38-1.75c-0.31-1.22-0.81-2.83-1.49-4.37
			c-0.19-0.38-0.35-0.76-0.54-1.13c-0.21-0.37-0.38-0.73-0.59-1.07c-0.22-0.33-0.39-0.67-0.62-0.96c-0.22-0.29-0.4-0.58-0.61-0.83
			c-0.4-0.49-0.76-0.88-1.03-1.14c-0.27-0.25-0.42-0.4-0.42-0.4l-0.35,0.38c0,0,0.14,0.14,0.39,0.39c0.25,0.24,0.58,0.63,0.96,1.12
			c0.2,0.23,0.37,0.52,0.56,0.8c0.21,0.28,0.38,0.62,0.57,0.95c0.21,0.32,0.37,0.69,0.55,1.04c0.18,0.36,0.33,0.74,0.5,1.11
			c0.63,1.51,1.07,3.1,1.35,4.29c0.15,0.67,0.24,1.2,0.3,1.56h-0.21v1.65h0.25v8.57c0,0.03,0,0.06,0.01,0.08l1.65-0.01l0.03-8.16
			h0.85l0.8,0.02v8.14l-0.01,0.01h1.66c0.01-0.03,0.01-0.06,0.01-0.08v-8.57h0.25v-1.65h-0.21c0.06-0.36,0.15-0.89,0.29-1.56
			c0.27-1.2,0.71-2.79,1.33-4.3c0.16-0.38,0.31-0.76,0.49-1.12c0.19-0.36,0.35-0.72,0.54-1.05c0.2-0.33,0.37-0.67,0.57-0.95
			c0.2-0.28,0.37-0.57,0.56-0.81c0.38-0.49,0.7-0.88,0.96-1.13c0.25-0.25,0.39-0.4,0.39-0.4L468.24,116.77z"/>
		<path class="st12" d="M464.54,140.18h-7.46c-1.22,0-2.39-0.55-3.13-1.47c-1.48-1.87-2.26-4.26-2.94-6.37l-0.03-0.08
			c-0.57-1.78-1.11-3.45-1.93-4.27c-3.14-3.15-4.86-7.32-4.86-11.75c0-4.44,1.73-8.61,4.86-11.76c3.14-3.14,7.31-4.87,11.75-4.87
			c4.44,0,8.61,1.73,11.75,4.86c3.14,3.14,4.87,7.32,4.87,11.76c0,4.44-1.73,8.62-4.87,11.75c-0.8,0.8-1.34,2.48-1.92,4.26
			c-0.65,2.03-1.47,4.55-2.95,6.44C466.95,139.62,465.77,140.18,464.54,140.18z M460.8,102.61c-3.64,0-7.06,1.42-9.63,3.99
			c-2.57,2.58-3.99,6-3.99,9.64c0,3.63,1.42,7.05,3.99,9.64c1.33,1.33,1.97,3.34,2.66,5.47l0.02,0.07c0.61,1.87,1.3,3.99,2.44,5.43
			c0.17,0.21,0.47,0.34,0.79,0.34h7.46c0.32,0,0.62-0.13,0.79-0.35c1.16-1.47,1.85-3.62,2.46-5.51c0.69-2.13,1.34-4.15,2.65-5.46
			c2.58-2.57,4-5.99,4-9.63c0-3.64-1.42-7.07-4-9.64C467.86,104.02,464.44,102.61,460.8,102.61z"/>
		<g>
			<g>
				<path class="st10" d="M466.38,140.45h-11.14c-0.45,0-0.81,0.36-0.81,0.81c0,0.45,0.36,0.81,0.81,0.81h11.14
					c0.45,0,0.81-0.36,0.81-0.81C467.19,140.81,466.83,140.45,466.38,140.45z"/>
				<path class="st10" d="M465.53,142.08h-9.44c-0.45,0-0.81,0.36-0.81,0.81c0,0.45,0.36,0.81,0.81,0.81h9.44
					c0.45,0,0.81-0.36,0.81-0.81C466.34,142.44,465.98,142.08,465.53,142.08z"/>
				<path class="st10" d="M464.34,143.71h-7.06c-0.45,0-0.81,0.36-0.81,0.81c0,0.45,0.36,0.81,0.81,0.81h0.78
					c0,0.45,0.36,0.81,0.81,0.81h3.87c0.45,0,0.81-0.36,0.81-0.81h0.78c0.45,0,0.81-0.36,0.81-0.81
					C465.15,144.07,464.78,143.71,464.34,143.71z"/>
			</g>
		</g>
		<polygon class="st4" points="466.92,112.15 465.24,113.3 464.55,111.39 463.05,112.77 462.08,110.96 460.81,112.58 459.53,110.96 
			458.56,112.77 457.06,111.39 456.37,113.3 454.7,112.15 454.28,114.15 452.97,113.51 454.84,115.31 455.23,113.48 456.77,114.54 
			457.4,112.78 458.78,114.04 459.66,112.4 460.81,113.86 461.95,112.4 462.83,114.04 464.21,112.78 464.84,114.54 466.38,113.48 
			466.77,115.31 468.64,113.51 467.34,114.15 		"/>
	</g>
	<g>
		<path class="st6" d="M271.41,207.31v-0.21c0-0.62-0.51-1.13-1.13-1.13h-25.61c-0.62,0-1.13,0.51-1.13,1.13v0.21
			c0,0.62,0.51,1.13,1.13,1.13h0.92c-0.04,0.46-0.06,0.92-0.06,1.4c0,3.94,2.69,7.1,5.06,9.89c1.96,2.3,3.81,4.47,3.8,6.61
			c-0.01,2.14-1.87,4.24-3.83,6.47c-2.36,2.67-5.03,5.7-5.03,9.53c0,0.1,0.01,0.2,0.01,0.31h-0.86c-0.64,0-1.15,0.51-1.15,1.15
			s0.51,1.15,1.15,1.15h25.58c0.64,0,1.15-0.51,1.15-1.15s-0.52-1.15-1.15-1.15h-0.86c0-0.1,0.01-0.2,0.01-0.31
			c0-3.83-2.67-6.86-5.03-9.53c-1.97-2.23-3.82-4.33-3.83-6.47c-0.01-2.14,1.84-4.31,3.8-6.61c2.37-2.79,5.06-5.95,5.06-9.89
			c0-0.47-0.02-0.94-0.06-1.4h0.92C270.91,208.44,271.41,207.93,271.41,207.31z M267.34,209.83c0,3.18-2.32,5.91-4.57,8.55
			c-2.21,2.6-4.31,5.06-4.29,7.96c0.01,2.91,2.12,5.3,4.35,7.83c2.22,2.51,4.51,5.11,4.51,8.16c0,0.1,0,0.2,0,0.31h-1.65
			c-0.41-0.64-1.7-2.52-3.54-4.03c-1.59-1.31-3.24-3.11-3.72-5.14c-0.52-2.23-0.79-6.07-0.82-9.55c-0.01-1.6,0.73-3.14,2.06-4
			c2.57-1.68,3.83-5.83,3.83-5.83s-2.28-1.4-3.14-1.47c-1.35-0.11-3.88,1.21-5.21,1.47c-0.95,0.19-3.87,0-3.87,0
			s1.31,4.04,3.85,5.76c1.3,0.88,2.02,2.41,2.02,4c-0.01,3.4-0.26,7.16-0.74,9.31c-0.47,2.1-2.18,3.96-3.85,5.28
			c-1.95,1.53-3.33,3.54-3.75,4.2h-1.19c0-0.1,0-0.2,0-0.31c0-3.05,2.29-5.64,4.51-8.16c2.23-2.53,4.34-4.92,4.35-7.83
			c0.01-2.91-2.08-5.36-4.29-7.96c-2.25-2.64-4.57-5.37-4.57-8.55c0-0.48,0.02-0.94,0.07-1.4h19.61
			C267.32,208.89,267.34,209.36,267.34,209.83z"/>
		<path class="st4" d="M267.69,246.38h-23.54l-0.09-0.93c-0.05-0.5-0.08-1.03-0.08-1.56c0-3.83,2.67-6.86,5.03-9.53
			c1.97-2.23,3.82-4.33,3.83-6.47c0.01-2.14-1.84-4.31-3.8-6.61c-2.37-2.79-5.06-5.95-5.06-9.89c0-0.97,0.08-1.91,0.23-2.81
			l0.15-0.86h23.13l0.15,0.86c0.15,0.89,0.23,1.84,0.23,2.81c0,3.94-2.69,7.1-5.06,9.89c-1.96,2.3-3.81,4.47-3.8,6.61
			c0.01,2.13,1.87,4.24,3.83,6.47c2.36,2.67,5.03,5.7,5.03,9.53c0,0.54-0.03,1.06-0.08,1.56L267.69,246.38z M246.06,244.31h19.73
			c0-0.14,0.01-0.28,0.01-0.42c0-3.05-2.29-5.64-4.51-8.16c-2.23-2.53-4.34-4.92-4.35-7.83c-0.01-2.91,2.08-5.36,4.29-7.96
			c2.25-2.64,4.57-5.37,4.57-8.55c0-0.55-0.03-1.08-0.08-1.6h-19.57c-0.05,0.52-0.08,1.05-0.08,1.6c0,3.18,2.32,5.91,4.57,8.55
			c2.21,2.6,4.31,5.06,4.29,7.96c-0.01,2.91-2.12,5.3-4.35,7.83c-2.22,2.51-4.51,5.11-4.51,8.16
			C246.05,244.03,246.05,244.17,246.06,244.31z"/>
		<path class="st7" d="M268.78,209.99h-25.73c-0.59,0-1.07-0.48-1.07-1.07v-0.32c0-0.59,0.48-1.07,1.07-1.07h25.73
			c0.59,0,1.08,0.48,1.08,1.07v0.32C269.86,209.51,269.38,209.99,268.78,209.99z"/>
		<path class="st9" d="M254.85,234.72c-0.47,2.1-2.18,3.96-3.85,5.28c-2.37,1.85-3.89,4.42-3.89,4.42h17.17c0,0-1.44-2.41-3.68-4.25
			c-1.59-1.31-3.24-3.11-3.72-5.14c-0.52-2.23-0.79-6.07-0.82-9.55c-0.01-1.6,0.73-3.14,2.06-4c2.57-1.68,3.83-5.83,3.83-5.83
			s-2.68-1.41-3.67-1.47c-1.49-0.1-3.97,1.42-5.8,1.47c-0.68,0.02-2.74,0-2.74,0s1.31,4.04,3.85,5.76c1.3,0.88,2.02,2.41,2.02,4
			C255.59,228.81,255.34,232.57,254.85,234.72z"/>
		<path class="st7" d="M268.86,244.19h-25.88c-0.55,0-1,0.45-1,1v0.3c0,0.55,0.45,1,1,1h25.88c0.55,0,1-0.45,1-1v-0.3
			C269.86,244.64,269.41,244.19,268.86,244.19z"/>
	</g>
</g>
<g>
	<polygon class="st4" points="415.35,126.21 416.05,127.5 417.34,128.2 416.05,128.9 415.35,130.18 414.65,128.9 413.37,128.2 
		414.65,127.5 	"/>
	<polygon class="st4" points="349.83,232.08 350.53,233.36 351.81,234.07 350.53,234.77 349.83,236.05 349.13,234.77 347.84,234.07 
		349.13,233.36 	"/>
	<polygon class="st4" points="485.91,245.71 486.61,247 487.9,247.7 486.61,248.4 485.91,249.68 485.21,248.4 483.92,247.7 
		485.21,247 	"/>
	<polygon class="st4" points="535.22,169.35 535.92,170.64 537.21,171.34 535.92,172.04 535.22,173.33 534.52,172.04 533.24,171.34 
		534.52,170.64 	"/>
	<polygon class="st4" points="549.48,292.28 550.18,293.56 551.46,294.26 550.18,294.97 549.48,296.25 548.77,294.97 547.49,294.26 
		548.77,293.56 	"/>
	<polygon class="st4" points="303.78,148.69 304.48,149.98 305.77,150.68 304.48,151.38 303.78,152.66 303.08,151.38 301.8,150.68 
		303.08,149.98 	"/>
	<polygon class="st4" points="444.87,292.96 445.45,299.26 451.75,299.83 445.45,300.41 444.87,306.71 444.3,300.41 438,299.83 
		444.3,299.26 	"/>
	<polygon class="st4" points="437.58,205.91 438.17,212.28 444.54,212.87 438.17,213.45 437.58,219.83 437,213.45 430.62,212.87 
		437,212.28 	"/>
	<polygon class="st4" points="279.49,116.69 279.86,120.69 283.87,121.06 279.86,121.43 279.49,125.43 279.13,121.43 275.12,121.06 
		279.13,120.69 	"/>
	<polygon class="st4" points="339.16,199.51 339.97,203.59 344.05,204.4 339.97,205.21 339.16,209.3 338.35,205.21 334.26,204.4 
		338.35,203.59 	"/>
	<polygon class="st4" points="287.35,202.19 287.86,204.76 290.43,205.27 287.86,205.78 287.35,208.35 286.84,205.78 284.27,205.27 
		286.84,204.76 	"/>
	<polygon class="st4" points="311.73,267.37 312.54,271.46 316.63,272.27 312.54,273.08 311.73,277.16 310.92,273.08 306.84,272.27 
		310.92,271.46 	"/>
	<polygon class="st4" points="465.36,148.85 466.17,152.94 470.25,153.75 466.17,154.56 465.36,158.64 464.55,154.56 460.47,153.75 
		464.55,152.94 	"/>
	<polygon class="st4" points="430.62,88.78 431.28,92.08 434.58,92.73 431.28,93.39 430.62,96.69 429.97,93.39 426.67,92.73 
		429.97,92.08 	"/>
	<polygon class="st4" points="240.44,174.33 241.24,178.42 245.33,179.22 241.24,180.03 240.44,184.12 239.63,180.03 235.54,179.22 
		239.63,178.42 	"/>
</g>
<path class="st19" d="M424.24,218.13c4.66-20.08,8.3-40.93,8.3-53.01c0-28.65-24.1-90.89-42.18-90.89
	c-16.87,0-42.18,62.24-42.18,90.89c0,11.87,3.52,32.22,8.07,51.98c-0.05,0.04-23.48,17.93-23.48,31.4
	c0,13.49,15.41,53.64,15.41,53.64s7.79-28.29,20.98-39.88c2.28,5.93,4.24,9.53,5.53,9.53c0,0-0.89,6.05,9.35,7.82
	c1.92,16.28,6.55,27.05,6.55,27.05s4.28-10.11,5.88-26.99c10.81-1.7,9.55-7.88,9.55-7.88c1.22,0,3.02-3.18,5.13-8.48
	c12.51,12.16,19.85,38.84,19.85,38.84s15.41-40.15,15.41-53.64C446.42,236.92,429.14,222.1,424.24,218.13z"/>
<defs>
	<filter id="Adobe_OpacityMaskFilter" filterUnits="userSpaceOnUse" x="225.99" y="254.01" width="305.99" height="131.26">
		
			<feColorMatrix  type="matrix" values="-1 0 0 0 1  0 -1 0 0 1  0 0 -1 0 1  0 0 0 1 0" color-interpolation-filters="sRGB" result="source"/>
		<feFlood  style="flood-color:white;flood-opacity:1" result="back"/>
		<feBlend  in="source" in2="back" mode="normal"/>
	</filter>
</defs>
<mask maskUnits="userSpaceOnUse" x="225.99" y="254.01" width="305.99" height="131.26" id="SVGID_1_">
	<g class="st20">
		<rect x="139.18" y="357.37" class="st4" width="504.9" height="69.61"/>
	</g>
</mask>
<g class="st21">
	<linearGradient id="SVGID_2_" gradientUnits="userSpaceOnUse" x1="497.0947" y1="330.7887" x2="497.0947" y2="368.3638">
		<stop  offset="0.2194" style="stop-color:#FFFFFF"/>
		<stop  offset="0.9949" style="stop-color:#49AFDE"/>
	</linearGradient>
	<path class="st22" d="M527.04,346.76c-0.67-4.74-4.74-8.39-9.66-8.39c-2.27,0-4.35,0.78-6,2.07c-1.18-2.52-3.73-4.26-6.69-4.26
		c-1.84,0-3.53,0.68-4.82,1.8c-1.1-4.42-5.09-7.71-9.85-7.71c-5.61,0-10.16,4.55-10.16,10.16c0,0.62,0.06,1.23,0.17,1.82
		c-1.76,0.35-3.37,1.11-4.73,2.17c-1.38-1.13-3.15-1.82-5.07-1.82c-4.42,0-8,3.58-8,8c0,4.42,3.58,8,8,8c0.65,0,1.27-0.09,1.88-0.23
		c1.85,3.73,5.69,6.3,10.13,6.3c2.44,0,4.69-0.78,6.54-2.09c1.65,4.71,6.12,8.1,11.39,8.1c4.85,0,9.01-2.86,10.94-6.98
		c0.47,0.09,0.96,0.14,1.46,0.14c3.62,0,6.66-2.46,7.56-5.8c1.25,1.34,3.03,2.18,5.01,2.18c3.79,0,6.86-3.07,6.86-6.86
		C531.97,350.22,529.89,347.59,527.04,346.76z M498,346.72c-0.01,0-0.01,0-0.02,0c0-0.01,0.01-0.01,0.01-0.02
		C498,346.71,498,346.71,498,346.72z"/>
	
		<linearGradient id="SVGID_3_" gradientUnits="userSpaceOnUse" x1="757.5811" y1="434.1347" x2="757.5811" y2="493.2527" gradientTransform="matrix(-1 -4.600000e-03 4.600000e-03 -1 1146.3068 804.3868)">
		<stop  offset="0.2194" style="stop-color:#FFFFFF"/>
		<stop  offset="0.9949" style="stop-color:#49AFDE"/>
	</linearGradient>
	<path class="st23" d="M343.72,341.43c1.02,7.46,7.39,13.24,15.14,13.27c3.56,0.02,6.84-1.19,9.46-3.22
		c1.84,3.97,5.83,6.73,10.5,6.76c2.9,0.01,5.55-1.04,7.6-2.79c1.7,6.97,7.95,12.16,15.45,12.2c8.83,0.04,16.02-7.09,16.06-15.92
		c0-0.98-0.09-1.93-0.26-2.86c2.77-0.53,5.31-1.72,7.46-3.38c2.16,1.79,4.94,2.88,7.97,2.89c6.95,0.03,12.61-5.57,12.64-12.52
		c0.03-6.95-5.57-12.61-12.52-12.64c-1.02,0-2,0.12-2.95,0.35c-2.88-5.88-8.9-9.95-15.89-9.98c-3.84-0.02-7.39,1.19-10.3,3.24
		c-2.55-7.43-9.57-12.78-17.86-12.82c-7.62-0.03-14.2,4.44-17.25,10.9c-0.74-0.14-1.51-0.23-2.29-0.23
		c-5.7-0.03-10.5,3.82-11.94,9.07c-1.96-2.12-4.75-3.46-7.87-3.47c-5.96-0.03-10.82,4.79-10.85,10.75
		C335.99,335.94,339.24,340.09,343.72,341.43z M389.41,341.7c0.01,0,0.02,0,0.03,0c-0.01,0.01-0.01,0.02-0.02,0.03
		C389.42,341.72,389.41,341.71,389.41,341.7z"/>
	
		<linearGradient id="SVGID_4_" gradientUnits="userSpaceOnUse" x1="896.4575" y1="330.7887" x2="896.4575" y2="368.3638" gradientTransform="matrix(-1 0 0 1 1157.3239 0)">
		<stop  offset="0.2194" style="stop-color:#FFFFFF"/>
		<stop  offset="0.9949" style="stop-color:#49AFDE"/>
	</linearGradient>
	<path class="st24" d="M225.99,353.34c0,3.79,3.07,6.86,6.86,6.86c1.98,0,3.76-0.84,5.01-2.18c0.9,3.34,3.94,5.8,7.56,5.8
		c0.5,0,0.98-0.05,1.46-0.14c1.92,4.12,6.09,6.98,10.93,6.98c5.27,0,9.74-3.39,11.39-8.1c1.85,1.31,4.1,2.09,6.54,2.09
		c4.44,0,8.28-2.57,10.13-6.3c0.6,0.14,1.23,0.23,1.87,0.23c4.42,0,8-3.58,8-8c0-4.42-3.58-8-8-8c-1.93,0-3.69,0.68-5.07,1.82
		c-1.36-1.06-2.97-1.82-4.73-2.17c0.11-0.59,0.17-1.19,0.17-1.82c0-5.61-4.55-10.16-10.16-10.16c-4.77,0-8.75,3.28-9.85,7.71
		c-1.3-1.12-2.98-1.8-4.82-1.8c-2.96,0-5.51,1.75-6.69,4.26c-1.66-1.29-3.74-2.07-6-2.07c-4.93,0-8.99,3.65-9.66,8.39
		C228.07,347.59,225.99,350.22,225.99,353.34z M259.96,346.7c0,0.01,0.01,0.01,0.01,0.02c-0.01,0-0.01,0-0.02,0
		C259.96,346.71,259.96,346.71,259.96,346.7z"/>
	<polygon class="st19" points="379.94,254.01 356.11,357.37 424.74,357.37 399.24,254.01 	"/>
	<linearGradient id="SVGID_5_" gradientUnits="userSpaceOnUse" x1="390.4281" y1="252.8681" x2="390.4281" y2="360.4142">
		<stop  offset="0.2449" style="stop-color:#FFFFFF"/>
		<stop  offset="0.3378" style="stop-color:#F7FCFE"/>
		<stop  offset="0.4801" style="stop-color:#E2F3FB"/>
		<stop  offset="0.6537" style="stop-color:#BFE4F5"/>
		<stop  offset="0.8504" style="stop-color:#8FD0EE"/>
		<stop  offset="1" style="stop-color:#66BFE8"/>
	</linearGradient>
	<polygon class="st25" points="381.58,256.18 362.31,367.64 418.54,367.64 397.96,256.18 	"/>
	<linearGradient id="SVGID_6_" gradientUnits="userSpaceOnUse" x1="377.3545" y1="315.0231" x2="377.3545" y2="381.222">
		<stop  offset="0.2449" style="stop-color:#FFFFFF"/>
		<stop  offset="0.3378" style="stop-color:#F7FCFE"/>
		<stop  offset="0.4801" style="stop-color:#E2F3FB"/>
		<stop  offset="0.6537" style="stop-color:#BFE4F5"/>
		<stop  offset="0.8504" style="stop-color:#8FD0EE"/>
		<stop  offset="1" style="stop-color:#66BFE8"/>
	</linearGradient>
	<path class="st26" d="M485.77,349.71c-1.17,0-2.28,0.25-3.28,0.7c0.52-1.34,0.81-2.79,0.81-4.32c0-6.64-5.38-12.03-12.03-12.03
		c-0.95,0-1.87,0.12-2.75,0.33c-1.74-9.08-9.71-15.95-19.3-15.95c-9.59,0-17.57,6.87-19.3,15.95c-2.61-2.14-5.95-3.43-9.59-3.43
		c-8.35,0-15.12,6.77-15.12,15.12c0,4,1.56,7.62,4.1,10.33c-0.6,1.37-0.94,2.88-0.98,4.46c-1.37-1.09-3.1-1.74-4.99-1.74
		c-2.25,0-4.29,0.93-5.75,2.42c-2.24-5.56-7.67-9.49-14.03-9.49c-1.82,0-3.55,0.34-5.16,0.92c-0.95-5.7-5.88-10.05-11.85-10.05
		c-1.7,0-3.32,0.36-4.78,0.99c0-0.15,0.01-0.3,0.01-0.46c0-11-8.91-19.91-19.91-19.91c-4.75,0-9.1,1.66-12.52,4.43
		c-0.38-7.75-6.76-13.91-14.6-13.91c-6.88,0-12.63,4.75-14.2,11.14c-1.03-0.16-2.09-0.24-3.16-0.24c-11.65,0-21.1,9.45-21.1,21.1
		c0,1.25,0.12,2.48,0.33,3.68c-1.16-0.37-2.4-0.58-3.68-0.58c-6.64,0-12.03,5.38-12.03,12.03c0,6.64,5.38,12.03,12.03,12.03
		c1.52,0,2.97-0.29,4.31-0.81c2.13,5.76,7.66,9.88,14.17,9.88c6.8,0,12.55-4.49,14.45-10.67c3.62,4.97,9.48,8.21,16.1,8.21
		c5.46,0,10.41-2.2,14.01-5.76c2.74,2.74,6.52,4.43,10.7,4.43c1.41,0,2.76-0.21,4.06-0.57c1.83,4.3,6.1,7.31,11.07,7.31
		c4.99,0,9.28-3.05,11.09-7.38c2.74,2.74,6.52,4.43,10.69,4.43c6.36,0,11.79-3.93,14.03-9.49c1.46,1.49,3.5,2.42,5.75,2.42
		c3.83,0,7.02-2.67,7.84-6.25c2.21,2.59,5.49,4.24,9.16,4.24c1.82,0,3.53-0.41,5.07-1.13c1.08,5.53,5.95,9.71,11.8,9.71
		c5.78,0,10.6-4.08,11.76-9.51c3.23,3.94,8.49,6.51,14.45,6.51c3.55,0,6.85-0.91,9.62-2.48c1.32,0.95,2.94,1.52,4.69,1.52
		c4.45,0,8.05-3.61,8.05-8.05c0-1.48-0.41-2.86-1.1-4.06c0.36,0.05,0.73,0.08,1.1,0.08c4.45,0,8.05-3.61,8.05-8.05
		S490.22,349.71,485.77,349.71z"/>
</g>
<path class="st9" d="M358.42,200.18c0,0-21.96,16.75-21.96,29.36c0,12.61,14.41,50.16,14.41,50.16s9.34-33.96,24.79-40.7
	C391.12,232.26,358.42,200.18,358.42,200.18z"/>
<path class="st9" d="M420.78,200.18c0,0,21.96,16.75,21.96,29.36c0,12.61-14.41,50.16-14.41,50.16s-9.34-33.96-24.79-40.7
	C388.08,232.26,420.78,200.18,420.78,200.18z"/>
<path class="st27" d="M429.75,151.57c0-26.79-22.54-84.99-39.44-84.99c-15.78,0-39.44,58.2-39.44,84.99
	c0,26.79,19.16,99.74,24.79,99.74c0,0-1.16,7.77,14.65,7.77c16.24,0,14.65-7.77,14.65-7.77
	C410.6,251.32,429.75,178.37,429.75,151.57z"/>
<g>
	<path class="st9" d="M413.79,231.73c0.51-1.62,1.02-3.31,1.53-5.05c-5.34,0.78-13.96,1.7-25.21,1.7c-10.95,0-19.42-0.86-24.79-1.63
		c0.51,1.75,1.02,3.43,1.53,5.05c5.53,0.7,13.39,1.37,23.26,1.37C400.24,233.16,408.26,232.45,413.79,231.73z"/>
	<path class="st9" d="M419.73,107.34c-0.58-1.53-1.17-3.05-1.78-4.55c-4.85,0.83-14.5,2.11-27.84,2.11
		c-12.67,0-22.02-1.16-27.09-1.99c-0.62,1.5-1.23,3.02-1.82,4.55c4.99,0.87,14.94,2.21,28.91,2.21
		C404.81,109.69,415.03,108.2,419.73,107.34z"/>
	<path class="st9" d="M410.45,241.57c0.58-1.54,1.17-3.22,1.78-5.03c-5.34,0.66-12.84,1.28-22.13,1.28c-9.04,0-16.39-0.59-21.7-1.23
		c0.61,1.81,1.21,3.49,1.78,5.03c5.19,0.54,11.89,0.99,19.92,0.99C398.36,242.6,405.21,242.14,410.45,241.57z"/>
</g>
<path class="st9" d="M365.4,97.4c0,0,10.39,1.91,25.13,1.91c14.73,0,25.13-1.91,25.13-1.91c-7.63-17.15-17.15-30.82-25.34-30.82
	C382.67,66.58,373.16,80.26,365.4,97.4z"/>
<g>
	
		<ellipse transform="matrix(0.8507 -0.5257 0.5257 0.8507 -18.3865 226.9829)" class="st28" cx="390.31" cy="145.85" rx="24.79" ry="24.79"/>
	
		<ellipse transform="matrix(0.2898 -0.9571 0.9571 0.2898 137.6119 477.153)" class="st7" cx="390.31" cy="145.85" rx="19.77" ry="19.77"/>
	<g>
		
			<ellipse transform="matrix(0.9239 -0.3827 0.3827 0.9239 -26.1048 160.4689)" class="st29" cx="390.31" cy="145.85" rx="22.38" ry="22.38"/>
	</g>
	<path class="st4" d="M406.83,145.86c0,0.93-0.08,1.83-0.23,2.72c-1.23,7.43-7.43,13.19-15.07,13.74c-0.4,0.03-0.81,0.05-1.22,0.05
		c-1.79,0-3.53-0.29-5.15-0.83c-1.4-0.45-2.71-1.09-3.93-1.89c-0.95-0.62-1.82-1.34-2.63-2.14c-2.96-3-4.8-7.1-4.8-11.65
		c0-9.12,7.4-16.52,16.51-16.52c5.1,0,9.64,2.31,12.67,5.94c0.73,0.87,1.37,1.8,1.9,2.81c0.68,1.27,1.2,2.65,1.53,4.1
		C406.69,143.36,406.83,144.6,406.83,145.86z"/>
	<path class="st30" d="M398.47,145.86c0,0.46-0.04,0.91-0.11,1.34c-0.61,3.67-3.67,6.51-7.44,6.78c-0.2,0.01-0.4,0.02-0.6,0.02
		c-0.89,0-1.74-0.14-2.54-0.41c-0.69-0.22-1.34-0.54-1.94-0.93c-0.47-0.31-0.9-0.66-1.3-1.06c-1.46-1.48-2.37-3.5-2.37-5.75
		c0-4.5,3.65-8.15,8.15-8.15c2.52,0,4.76,1.14,6.26,2.93c0.36,0.43,0.68,0.89,0.94,1.39c0.34,0.63,0.59,1.31,0.75,2.03
		C398.4,144.62,398.47,145.23,398.47,145.86z"/>
	<path class="st4" d="M403.75,136.29c-2.7-1.93-5.99-3.06-9.56-3.06c-9.11,0-16.5,7.4-16.5,16.52c0,3.57,1.13,6.85,3.06,9.56
		c-0.77-0.54-1.48-1.13-2.15-1.79c-2.96-3-4.81-7.1-4.81-11.66c0-9.12,7.4-16.51,16.51-16.51c5.1,0,9.64,2.31,12.67,5.94
		C403.26,135.6,403.52,135.94,403.75,136.29z"/>
</g>
<path class="st31" d="M375.66,251.32h29.3c0,0,1.59,7.77-14.65,7.77C374.51,259.08,375.66,251.32,375.66,251.32z"/>
<path class="st9" d="M390.31,200.76c0,0-6.68,22.76-6.68,44.94s6.89,38.22,6.89,38.22s6.05-14.3,6.05-37.09
	C396.58,223.55,390.31,200.76,390.31,200.76z"/>
</svg>
