<?xml version="1.0" encoding="utf-8"?>
<!-- Generator: Adobe Illustrator 23.1.1, SVG Export Plug-In . SVG Version: 6.00 Build 0)  -->
<svg version="1.1" id="Layer_1" xmlns="http://www.w3.org/2000/svg" xmlns:xlink="http://www.w3.org/1999/xlink" x="0px" y="0px"
	 viewBox="0 0 20 20" style="enable-background:new 0 0 20 20;" xml:space="preserve">
<style type="text/css">
	.st0{fill-rule:evenodd;clip-rule:evenodd;}
</style>
<title>acf</title>
<desc>Created with Sketch.</desc>
<g id="Page-1">
	<g id="acf">
		<path id="Shape" class="st0" d="M4.4,9l0.8,2.1l-1.5,0c0-0.2,0.3-0.8,0.4-1.1L4.4,9C4.4,9,4.4,9.1,4.4,9z M13.1,9.3h1v1.5l-1,0
			c-0.1,0.5-0.5,1-1,1.3c-1.6,1.1-3.9,0.1-4-2.1c0-1.3,1-2.3,2.1-2.5C11.5,7.3,12.8,8.1,13.1,9.3z M0,14.5L0,14.5l2.3,0l0.5-1.3
			c0-0.1,0,0,0.1-0.1l3.1,0c0,0.2,0.5,1.2,0.5,1.3l2.4,0l-0.1-0.3c0.7,0.2,1.2,0.4,2.1,0.4c1,0,2-0.5,2.6-1c0.1-0.1,0.2-0.2,0.3-0.3
			c0.1-0.1,0.2-0.2,0.3-0.3l0,1.6h2.2v-1.7c0-0.3,0-1.5,0-1.7l3.5,0v-2l-3.5,0l0,0c0-0.1,0-0.7,0-0.8c0-0.2,0-0.7,0-0.8l3.7,0V5.4
			h-5.9l0,1.6c-0.4-0.4-0.3-0.4-0.8-0.7c-1-0.7-2.4-1-3.6-0.7C8.8,5.8,8.1,6.2,7.5,6.8C7.4,6.9,7.4,6.9,7.3,7C7,7.2,6.6,7.9,6.5,8.3
			L6.4,8.4C6.3,8.1,5.6,6.6,5.5,6.1C5.4,5.9,5.3,5.6,5.2,5.4H3.6L0,14.5z"/>
	</g>
</g>
</svg>
