<?xml version="1.0" encoding="utf-8"?>
<!-- Generator: Adobe Illustrator 23.1.1, SVG Export Plug-In . SVG Version: 6.00 Build 0)  -->
<svg version="1.1" id="Layer_1" xmlns="http://www.w3.org/2000/svg" xmlns:xlink="http://www.w3.org/1999/xlink" x="0px" y="0px"
	 viewBox="0 0 20 20" style="enable-background:new 0 0 20 20;" xml:space="preserve">
<path d="M6.8,19.5c-0.6,0.1-0.8-0.4-1-0.8c-1.5-1.8-3-3.6-4.5-5.3c-0.4-0.5-0.8-0.9-1.2-1.4C0,11.8,0,11.6,0,11.4c0.3-1,0.7-2,1.1-3
	c0.7-2,1.5-3.9,2.2-5.9c0.1-0.3,0.2-0.4,0.5-0.5c3-0.5,5.9-1.1,8.9-1.5c0.6-0.1,1,0,1.4,0.5c1,1.3,2,2.5,3,3.7
	c0.9,1.1,1.8,2.1,2.7,3.2C20,8.1,20.1,8.3,20,8.6c-0.5,1.3-0.9,2.5-1.4,3.8c-0.6,1.7-1.2,3.3-1.9,5c-0.1,0.3-0.2,0.4-0.5,0.4
	c-2.7,0.4-5.3,0.9-8,1.4C7.7,19.3,7.3,19.4,6.8,19.5z M4.3,16.1C4.3,16.1,4.3,16.1,4.3,16.1c0.3,0,0.6,0,0.9,0
	c2.4-0.3,4.7-0.5,7.1-0.8c0.4,0,0.5-0.2,0.6-0.6c0.4-2.1,1.3-4.1,2.7-5.7c0.2-0.2,0.2-0.3,0-0.5c-0.9-1.1-1.9-2.2-2.8-3.4
	c-0.2-0.2-0.3-0.2-0.6-0.1c-1.9,1.1-4,1.6-6.2,1.6C5.7,6.6,5.5,6.7,5.5,7c-0.5,1.8-1,3.5-1.6,5.3c-0.2,0.8-0.5,1.6-0.7,2.4
	c1.1-0.8,2.1-1.7,3.1-2.5c0.5-0.4,0.8-0.9,0.8-1.5c0-0.3,0.1-0.6,0.2-0.9c0.7-1.2,2.3-1,3.1-0.4c0.2,0.2,0,0.2-0.1,0.3
	C9.9,9.8,9.4,10,9,10.1c-0.3,0.1-0.4,0.3-0.4,0.6c0,0.3,0.1,0.6,0.3,0.8c0.2,0.2,0.3,0.3,0.6,0.2c0.4-0.2,0.9-0.3,1.3-0.4
	c0.1,0,0.2-0.1,0.3,0c0.1,0.1,0,0.2,0,0.3c-0.4,1-1.4,1.7-2.5,1.5c-0.5-0.1-0.9,0-1.2,0.4c-0.2,0.2-0.4,0.3-0.6,0.5
	C5.9,14.6,5.1,15.4,4.3,16.1z M18.8,7.5c-0.1-0.1-0.2-0.2-0.2-0.3c-0.5-0.6-1.1-1.3-1.6-1.9c-0.8-0.9-1.6-1.9-2.4-2.8
	c-0.1-0.1-0.2-0.3-0.4-0.1c-0.4,0.4-0.9,0.7-1.3,1.1c-0.1,0.1-0.1,0.2,0,0.3c1.4,1.6,2.7,3.3,4.1,4.9c0.1,0.2,0.2,0.2,0.4,0
	c0.4-0.4,0.8-0.7,1.3-1.1C18.6,7.6,18.7,7.5,18.8,7.5z"/>
</svg>
